<?xml version="1.0" encoding="utf-8" standalone="no"?>
<!DOCTYPE svg PUBLIC "-//W3C//DTD SVG 1.1//EN"
  "http://www.w3.org/Graphics/SVG/1.1/DTD/svg11.dtd">
<svg xmlns:xlink="http://www.w3.org/1999/xlink" width="864pt" height="720pt" viewBox="0 0 864 720" xmlns="http://www.w3.org/2000/svg" version="1.1">
 <metadata>
  <rdf:RDF xmlns:dc="http://purl.org/dc/elements/1.1/" xmlns:cc="http://creativecommons.org/ns#" xmlns:rdf="http://www.w3.org/1999/02/22-rdf-syntax-ns#">
   <cc:Work>
    <dc:type rdf:resource="http://purl.org/dc/dcmitype/StillImage"/>
    <dc:date>2025-10-17T14:50:57.613407</dc:date>
    <dc:format>image/svg+xml</dc:format>
    <dc:creator>
     <cc:Agent>
      <dc:title>Matplotlib v3.5.1, https://matplotlib.org/</dc:title>
     </cc:Agent>
    </dc:creator>
   </cc:Work>
  </rdf:RDF>
 </metadata>
 <defs>
  <style type="text/css">*{stroke-linejoin: round; stroke-linecap: butt}</style>
 </defs>
 <g id="figure_1">
  <g id="patch_1">
   <path d="M 0 720 
L 864 720 
L 864 0 
L 0 0 
z
" style="fill: #ffffff"/>
  </g>
  <g id="axes_1">
   <g id="patch_2">
    <path d="M 53.03 224.386667 
L 853.2 224.386667 
L 853.2 25.44 
L 53.03 25.44 
z
" style="fill: #ffffff"/>
   </g>
   <g id="matplotlib.axis_1">
    <g id="xtick_1">
     <g id="line2d_1">
      <path d="M 89.401364 224.386667 
L 89.401364 25.44 
" clip-path="url(#pa0304b0ab7)" style="fill: none; stroke: #b0b0b0; stroke-opacity: 0.3; stroke-width: 0.8; stroke-linecap: square"/>
     </g>
     <g id="line2d_2">
      <defs>
       <path id="mfd2383164f" d="M 0 0 
L 0 3.5 
" style="stroke: #000000; stroke-width: 0.8"/>
      </defs>
      <g>
       <use xlink:href="#mfd2383164f" x="89.401364" y="224.386667" style="stroke: #000000; stroke-width: 0.8"/>
      </g>
     </g>
     <g id="text_1">
      <!-- 0.0 -->
      <g transform="translate(81.449801 238.985104)scale(0.1 -0.1)">
       <defs>
        <path id="DejaVuSans-30" d="M 2034 4250 
Q 1547 4250 1301 3770 
Q 1056 3291 1056 2328 
Q 1056 1369 1301 889 
Q 1547 409 2034 409 
Q 2525 409 2770 889 
Q 3016 1369 3016 2328 
Q 3016 3291 2770 3770 
Q 2525 4250 2034 4250 
z
M 2034 4750 
Q 2819 4750 3233 4129 
Q 3647 3509 3647 2328 
Q 3647 1150 3233 529 
Q 2819 -91 2034 -91 
Q 1250 -91 836 529 
Q 422 1150 422 2328 
Q 422 3509 836 4129 
Q 1250 4750 2034 4750 
z
" transform="scale(0.015625)"/>
        <path id="DejaVuSans-2e" d="M 684 794 
L 1344 794 
L 1344 0 
L 684 0 
L 684 794 
z
" transform="scale(0.015625)"/>
       </defs>
       <use xlink:href="#DejaVuSans-30"/>
       <use xlink:href="#DejaVuSans-2e" x="63.623047"/>
       <use xlink:href="#DejaVuSans-30" x="95.410156"/>
      </g>
     </g>
    </g>
    <g id="xtick_2">
     <g id="line2d_3">
      <path d="M 256.626024 224.386667 
L 256.626024 25.44 
" clip-path="url(#pa0304b0ab7)" style="fill: none; stroke: #b0b0b0; stroke-opacity: 0.3; stroke-width: 0.8; stroke-linecap: square"/>
     </g>
     <g id="line2d_4">
      <g>
       <use xlink:href="#mfd2383164f" x="256.626024" y="224.386667" style="stroke: #000000; stroke-width: 0.8"/>
      </g>
     </g>
     <g id="text_2">
      <!-- 0.2 -->
      <g transform="translate(248.674462 238.985104)scale(0.1 -0.1)">
       <defs>
        <path id="DejaVuSans-32" d="M 1228 531 
L 3431 531 
L 3431 0 
L 469 0 
L 469 531 
Q 828 903 1448 1529 
Q 2069 2156 2228 2338 
Q 2531 2678 2651 2914 
Q 2772 3150 2772 3378 
Q 2772 3750 2511 3984 
Q 2250 4219 1831 4219 
Q 1534 4219 1204 4116 
Q 875 4013 500 3803 
L 500 4441 
Q 881 4594 1212 4672 
Q 1544 4750 1819 4750 
Q 2544 4750 2975 4387 
Q 3406 4025 3406 3419 
Q 3406 3131 3298 2873 
Q 3191 2616 2906 2266 
Q 2828 2175 2409 1742 
Q 1991 1309 1228 531 
z
" transform="scale(0.015625)"/>
       </defs>
       <use xlink:href="#DejaVuSans-30"/>
       <use xlink:href="#DejaVuSans-2e" x="63.623047"/>
       <use xlink:href="#DejaVuSans-32" x="95.410156"/>
      </g>
     </g>
    </g>
    <g id="xtick_3">
     <g id="line2d_5">
      <path d="M 423.850684 224.386667 
L 423.850684 25.44 
" clip-path="url(#pa0304b0ab7)" style="fill: none; stroke: #b0b0b0; stroke-opacity: 0.3; stroke-width: 0.8; stroke-linecap: square"/>
     </g>
     <g id="line2d_6">
      <g>
       <use xlink:href="#mfd2383164f" x="423.850684" y="224.386667" style="stroke: #000000; stroke-width: 0.8"/>
      </g>
     </g>
     <g id="text_3">
      <!-- 0.4 -->
      <g transform="translate(415.899122 238.985104)scale(0.1 -0.1)">
       <defs>
        <path id="DejaVuSans-34" d="M 2419 4116 
L 825 1625 
L 2419 1625 
L 2419 4116 
z
M 2253 4666 
L 3047 4666 
L 3047 1625 
L 3713 1625 
L 3713 1100 
L 3047 1100 
L 3047 0 
L 2419 0 
L 2419 1100 
L 313 1100 
L 313 1709 
L 2253 4666 
z
" transform="scale(0.015625)"/>
       </defs>
       <use xlink:href="#DejaVuSans-30"/>
       <use xlink:href="#DejaVuSans-2e" x="63.623047"/>
       <use xlink:href="#DejaVuSans-34" x="95.410156"/>
      </g>
     </g>
    </g>
    <g id="xtick_4">
     <g id="line2d_7">
      <path d="M 591.075345 224.386667 
L 591.075345 25.44 
" clip-path="url(#pa0304b0ab7)" style="fill: none; stroke: #b0b0b0; stroke-opacity: 0.3; stroke-width: 0.8; stroke-linecap: square"/>
     </g>
     <g id="line2d_8">
      <g>
       <use xlink:href="#mfd2383164f" x="591.075345" y="224.386667" style="stroke: #000000; stroke-width: 0.8"/>
      </g>
     </g>
     <g id="text_4">
      <!-- 0.6 -->
      <g transform="translate(583.123782 238.985104)scale(0.1 -0.1)">
       <defs>
        <path id="DejaVuSans-36" d="M 2113 2584 
Q 1688 2584 1439 2293 
Q 1191 2003 1191 1497 
Q 1191 994 1439 701 
Q 1688 409 2113 409 
Q 2538 409 2786 701 
Q 3034 994 3034 1497 
Q 3034 2003 2786 2293 
Q 2538 2584 2113 2584 
z
M 3366 4563 
L 3366 3988 
Q 3128 4100 2886 4159 
Q 2644 4219 2406 4219 
Q 1781 4219 1451 3797 
Q 1122 3375 1075 2522 
Q 1259 2794 1537 2939 
Q 1816 3084 2150 3084 
Q 2853 3084 3261 2657 
Q 3669 2231 3669 1497 
Q 3669 778 3244 343 
Q 2819 -91 2113 -91 
Q 1303 -91 875 529 
Q 447 1150 447 2328 
Q 447 3434 972 4092 
Q 1497 4750 2381 4750 
Q 2619 4750 2861 4703 
Q 3103 4656 3366 4563 
z
" transform="scale(0.015625)"/>
       </defs>
       <use xlink:href="#DejaVuSans-30"/>
       <use xlink:href="#DejaVuSans-2e" x="63.623047"/>
       <use xlink:href="#DejaVuSans-36" x="95.410156"/>
      </g>
     </g>
    </g>
    <g id="xtick_5">
     <g id="line2d_9">
      <path d="M 758.300005 224.386667 
L 758.300005 25.44 
" clip-path="url(#pa0304b0ab7)" style="fill: none; stroke: #b0b0b0; stroke-opacity: 0.3; stroke-width: 0.8; stroke-linecap: square"/>
     </g>
     <g id="line2d_10">
      <g>
       <use xlink:href="#mfd2383164f" x="758.300005" y="224.386667" style="stroke: #000000; stroke-width: 0.8"/>
      </g>
     </g>
     <g id="text_5">
      <!-- 0.8 -->
      <g transform="translate(750.348443 238.985104)scale(0.1 -0.1)">
       <defs>
        <path id="DejaVuSans-38" d="M 2034 2216 
Q 1584 2216 1326 1975 
Q 1069 1734 1069 1313 
Q 1069 891 1326 650 
Q 1584 409 2034 409 
Q 2484 409 2743 651 
Q 3003 894 3003 1313 
Q 3003 1734 2745 1975 
Q 2488 2216 2034 2216 
z
M 1403 2484 
Q 997 2584 770 2862 
Q 544 3141 544 3541 
Q 544 4100 942 4425 
Q 1341 4750 2034 4750 
Q 2731 4750 3128 4425 
Q 3525 4100 3525 3541 
Q 3525 3141 3298 2862 
Q 3072 2584 2669 2484 
Q 3125 2378 3379 2068 
Q 3634 1759 3634 1313 
Q 3634 634 3220 271 
Q 2806 -91 2034 -91 
Q 1263 -91 848 271 
Q 434 634 434 1313 
Q 434 1759 690 2068 
Q 947 2378 1403 2484 
z
M 1172 3481 
Q 1172 3119 1398 2916 
Q 1625 2713 2034 2713 
Q 2441 2713 2670 2916 
Q 2900 3119 2900 3481 
Q 2900 3844 2670 4047 
Q 2441 4250 2034 4250 
Q 1625 4250 1398 4047 
Q 1172 3844 1172 3481 
z
" transform="scale(0.015625)"/>
       </defs>
       <use xlink:href="#DejaVuSans-30"/>
       <use xlink:href="#DejaVuSans-2e" x="63.623047"/>
       <use xlink:href="#DejaVuSans-38" x="95.410156"/>
      </g>
     </g>
    </g>
   </g>
   <g id="matplotlib.axis_2">
    <g id="ytick_1">
     <g id="line2d_11">
      <path d="M 53.03 205.193693 
L 853.2 205.193693 
" clip-path="url(#pa0304b0ab7)" style="fill: none; stroke: #b0b0b0; stroke-opacity: 0.3; stroke-width: 0.8; stroke-linecap: square"/>
     </g>
     <g id="line2d_12">
      <defs>
       <path id="mdcf0478247" d="M 0 0 
L -3.5 0 
" style="stroke: #000000; stroke-width: 0.8"/>
      </defs>
      <g>
       <use xlink:href="#mdcf0478247" x="53.03" y="205.193693" style="stroke: #000000; stroke-width: 0.8"/>
      </g>
     </g>
     <g id="text_6">
      <!-- −25 -->
      <g transform="translate(24.925313 208.992911)scale(0.1 -0.1)">
       <defs>
        <path id="DejaVuSans-2212" d="M 678 2272 
L 4684 2272 
L 4684 1741 
L 678 1741 
L 678 2272 
z
" transform="scale(0.015625)"/>
        <path id="DejaVuSans-35" d="M 691 4666 
L 3169 4666 
L 3169 4134 
L 1269 4134 
L 1269 2991 
Q 1406 3038 1543 3061 
Q 1681 3084 1819 3084 
Q 2600 3084 3056 2656 
Q 3513 2228 3513 1497 
Q 3513 744 3044 326 
Q 2575 -91 1722 -91 
Q 1428 -91 1123 -41 
Q 819 9 494 109 
L 494 744 
Q 775 591 1075 516 
Q 1375 441 1709 441 
Q 2250 441 2565 725 
Q 2881 1009 2881 1497 
Q 2881 1984 2565 2268 
Q 2250 2553 1709 2553 
Q 1456 2553 1204 2497 
Q 953 2441 691 2322 
L 691 4666 
z
" transform="scale(0.015625)"/>
       </defs>
       <use xlink:href="#DejaVuSans-2212"/>
       <use xlink:href="#DejaVuSans-32" x="83.789062"/>
       <use xlink:href="#DejaVuSans-35" x="147.412109"/>
      </g>
     </g>
    </g>
    <g id="ytick_2">
     <g id="line2d_13">
      <path d="M 53.03 179.46475 
L 853.2 179.46475 
" clip-path="url(#pa0304b0ab7)" style="fill: none; stroke: #b0b0b0; stroke-opacity: 0.3; stroke-width: 0.8; stroke-linecap: square"/>
     </g>
     <g id="line2d_14">
      <g>
       <use xlink:href="#mdcf0478247" x="53.03" y="179.46475" style="stroke: #000000; stroke-width: 0.8"/>
      </g>
     </g>
     <g id="text_7">
      <!-- −20 -->
      <g transform="translate(24.925313 183.263968)scale(0.1 -0.1)">
       <use xlink:href="#DejaVuSans-2212"/>
       <use xlink:href="#DejaVuSans-32" x="83.789062"/>
       <use xlink:href="#DejaVuSans-30" x="147.412109"/>
      </g>
     </g>
    </g>
    <g id="ytick_3">
     <g id="line2d_15">
      <path d="M 53.03 153.735807 
L 853.2 153.735807 
" clip-path="url(#pa0304b0ab7)" style="fill: none; stroke: #b0b0b0; stroke-opacity: 0.3; stroke-width: 0.8; stroke-linecap: square"/>
     </g>
     <g id="line2d_16">
      <g>
       <use xlink:href="#mdcf0478247" x="53.03" y="153.735807" style="stroke: #000000; stroke-width: 0.8"/>
      </g>
     </g>
     <g id="text_8">
      <!-- −15 -->
      <g transform="translate(24.925313 157.535025)scale(0.1 -0.1)">
       <defs>
        <path id="DejaVuSans-31" d="M 794 531 
L 1825 531 
L 1825 4091 
L 703 3866 
L 703 4441 
L 1819 4666 
L 2450 4666 
L 2450 531 
L 3481 531 
L 3481 0 
L 794 0 
L 794 531 
z
" transform="scale(0.015625)"/>
       </defs>
       <use xlink:href="#DejaVuSans-2212"/>
       <use xlink:href="#DejaVuSans-31" x="83.789062"/>
       <use xlink:href="#DejaVuSans-35" x="147.412109"/>
      </g>
     </g>
    </g>
    <g id="ytick_4">
     <g id="line2d_17">
      <path d="M 53.03 128.006863 
L 853.2 128.006863 
" clip-path="url(#pa0304b0ab7)" style="fill: none; stroke: #b0b0b0; stroke-opacity: 0.3; stroke-width: 0.8; stroke-linecap: square"/>
     </g>
     <g id="line2d_18">
      <g>
       <use xlink:href="#mdcf0478247" x="53.03" y="128.006863" style="stroke: #000000; stroke-width: 0.8"/>
      </g>
     </g>
     <g id="text_9">
      <!-- −10 -->
      <g transform="translate(24.925313 131.806082)scale(0.1 -0.1)">
       <use xlink:href="#DejaVuSans-2212"/>
       <use xlink:href="#DejaVuSans-31" x="83.789062"/>
       <use xlink:href="#DejaVuSans-30" x="147.412109"/>
      </g>
     </g>
    </g>
    <g id="ytick_5">
     <g id="line2d_19">
      <path d="M 53.03 102.27792 
L 853.2 102.27792 
" clip-path="url(#pa0304b0ab7)" style="fill: none; stroke: #b0b0b0; stroke-opacity: 0.3; stroke-width: 0.8; stroke-linecap: square"/>
     </g>
     <g id="line2d_20">
      <g>
       <use xlink:href="#mdcf0478247" x="53.03" y="102.27792" style="stroke: #000000; stroke-width: 0.8"/>
      </g>
     </g>
     <g id="text_10">
      <!-- −5 -->
      <g transform="translate(31.287813 106.077139)scale(0.1 -0.1)">
       <use xlink:href="#DejaVuSans-2212"/>
       <use xlink:href="#DejaVuSans-35" x="83.789062"/>
      </g>
     </g>
    </g>
    <g id="ytick_6">
     <g id="line2d_21">
      <path d="M 53.03 76.548977 
L 853.2 76.548977 
" clip-path="url(#pa0304b0ab7)" style="fill: none; stroke: #b0b0b0; stroke-opacity: 0.3; stroke-width: 0.8; stroke-linecap: square"/>
     </g>
     <g id="line2d_22">
      <g>
       <use xlink:href="#mdcf0478247" x="53.03" y="76.548977" style="stroke: #000000; stroke-width: 0.8"/>
      </g>
     </g>
     <g id="text_11">
      <!-- 0 -->
      <g transform="translate(39.6675 80.348196)scale(0.1 -0.1)">
       <use xlink:href="#DejaVuSans-30"/>
      </g>
     </g>
    </g>
    <g id="ytick_7">
     <g id="line2d_23">
      <path d="M 53.03 50.820034 
L 853.2 50.820034 
" clip-path="url(#pa0304b0ab7)" style="fill: none; stroke: #b0b0b0; stroke-opacity: 0.3; stroke-width: 0.8; stroke-linecap: square"/>
     </g>
     <g id="line2d_24">
      <g>
       <use xlink:href="#mdcf0478247" x="53.03" y="50.820034" style="stroke: #000000; stroke-width: 0.8"/>
      </g>
     </g>
     <g id="text_12">
      <!-- 5 -->
      <g transform="translate(39.6675 54.619253)scale(0.1 -0.1)">
       <use xlink:href="#DejaVuSans-35"/>
      </g>
     </g>
    </g>
    <g id="text_13">
     <!-- X Error (mm) -->
     <g transform="translate(18.845625 157.343802)rotate(-90)scale(0.1 -0.1)">
      <defs>
       <path id="DejaVuSans-58" d="M 403 4666 
L 1081 4666 
L 2241 2931 
L 3406 4666 
L 4084 4666 
L 2584 2425 
L 4184 0 
L 3506 0 
L 2194 1984 
L 872 0 
L 191 0 
L 1856 2491 
L 403 4666 
z
" transform="scale(0.015625)"/>
       <path id="DejaVuSans-20" transform="scale(0.015625)"/>
       <path id="DejaVuSans-45" d="M 628 4666 
L 3578 4666 
L 3578 4134 
L 1259 4134 
L 1259 2753 
L 3481 2753 
L 3481 2222 
L 1259 2222 
L 1259 531 
L 3634 531 
L 3634 0 
L 628 0 
L 628 4666 
z
" transform="scale(0.015625)"/>
       <path id="DejaVuSans-72" d="M 2631 2963 
Q 2534 3019 2420 3045 
Q 2306 3072 2169 3072 
Q 1681 3072 1420 2755 
Q 1159 2438 1159 1844 
L 1159 0 
L 581 0 
L 581 3500 
L 1159 3500 
L 1159 2956 
Q 1341 3275 1631 3429 
Q 1922 3584 2338 3584 
Q 2397 3584 2469 3576 
Q 2541 3569 2628 3553 
L 2631 2963 
z
" transform="scale(0.015625)"/>
       <path id="DejaVuSans-6f" d="M 1959 3097 
Q 1497 3097 1228 2736 
Q 959 2375 959 1747 
Q 959 1119 1226 758 
Q 1494 397 1959 397 
Q 2419 397 2687 759 
Q 2956 1122 2956 1747 
Q 2956 2369 2687 2733 
Q 2419 3097 1959 3097 
z
M 1959 3584 
Q 2709 3584 3137 3096 
Q 3566 2609 3566 1747 
Q 3566 888 3137 398 
Q 2709 -91 1959 -91 
Q 1206 -91 779 398 
Q 353 888 353 1747 
Q 353 2609 779 3096 
Q 1206 3584 1959 3584 
z
" transform="scale(0.015625)"/>
       <path id="DejaVuSans-28" d="M 1984 4856 
Q 1566 4138 1362 3434 
Q 1159 2731 1159 2009 
Q 1159 1288 1364 580 
Q 1569 -128 1984 -844 
L 1484 -844 
Q 1016 -109 783 600 
Q 550 1309 550 2009 
Q 550 2706 781 3412 
Q 1013 4119 1484 4856 
L 1984 4856 
z
" transform="scale(0.015625)"/>
       <path id="DejaVuSans-6d" d="M 3328 2828 
Q 3544 3216 3844 3400 
Q 4144 3584 4550 3584 
Q 5097 3584 5394 3201 
Q 5691 2819 5691 2113 
L 5691 0 
L 5113 0 
L 5113 2094 
Q 5113 2597 4934 2840 
Q 4756 3084 4391 3084 
Q 3944 3084 3684 2787 
Q 3425 2491 3425 1978 
L 3425 0 
L 2847 0 
L 2847 2094 
Q 2847 2600 2669 2842 
Q 2491 3084 2119 3084 
Q 1678 3084 1418 2786 
Q 1159 2488 1159 1978 
L 1159 0 
L 581 0 
L 581 3500 
L 1159 3500 
L 1159 2956 
Q 1356 3278 1631 3431 
Q 1906 3584 2284 3584 
Q 2666 3584 2933 3390 
Q 3200 3197 3328 2828 
z
" transform="scale(0.015625)"/>
       <path id="DejaVuSans-29" d="M 513 4856 
L 1013 4856 
Q 1481 4119 1714 3412 
Q 1947 2706 1947 2009 
Q 1947 1309 1714 600 
Q 1481 -109 1013 -844 
L 513 -844 
Q 928 -128 1133 580 
Q 1338 1288 1338 2009 
Q 1338 2731 1133 3434 
Q 928 4138 513 4856 
z
" transform="scale(0.015625)"/>
      </defs>
      <use xlink:href="#DejaVuSans-58"/>
      <use xlink:href="#DejaVuSans-20" x="68.505859"/>
      <use xlink:href="#DejaVuSans-45" x="100.292969"/>
      <use xlink:href="#DejaVuSans-72" x="163.476562"/>
      <use xlink:href="#DejaVuSans-72" x="202.839844"/>
      <use xlink:href="#DejaVuSans-6f" x="241.703125"/>
      <use xlink:href="#DejaVuSans-72" x="302.884766"/>
      <use xlink:href="#DejaVuSans-20" x="343.998047"/>
      <use xlink:href="#DejaVuSans-28" x="375.785156"/>
      <use xlink:href="#DejaVuSans-6d" x="414.798828"/>
      <use xlink:href="#DejaVuSans-6d" x="512.210938"/>
      <use xlink:href="#DejaVuSans-29" x="609.623047"/>
     </g>
    </g>
   </g>
   <g id="line2d_25">
    <path d="M 89.401364 76.548977 
L 97.762597 75.756277 
L 106.12383 76.110957 
L 114.485063 77.042125 
L 122.846296 75.972096 
L 131.207529 72.741796 
L 139.568762 70.176819 
L 147.929995 69.147478 
L 156.291228 68.929002 
L 164.652461 68.487989 
L 173.013694 69.158213 
L 181.374927 70.987117 
L 189.73616 71.346446 
L 198.097393 65.704117 
L 206.458626 63.473252 
L 214.819859 65.3707 
L 223.181092 65.423903 
L 231.542325 66.768459 
L 239.903558 68.114706 
L 248.264791 68.27601 
L 256.626024 67.146467 
L 264.987257 67.141737 
L 273.34849 68.56787 
L 281.709723 69.415438 
L 290.070956 72.306355 
L 298.432189 76.054784 
L 306.793422 77.879825 
L 315.154655 79.22026 
L 323.515888 81.25771 
L 331.877121 83.321451 
L 340.238354 85.924416 
L 348.599587 89.322388 
L 356.96082 92.330456 
L 365.322053 95.770705 
L 373.683286 98.509947 
L 382.044519 100.341374 
L 390.405752 101.572886 
L 398.766985 103.43876 
L 407.128218 104.754884 
L 415.489451 106.292678 
L 423.850684 108.669321 
L 432.211917 111.164221 
L 440.57315 113.72587 
L 448.934383 117.126221 
L 457.295617 119.358629 
L 465.65685 122.378845 
L 474.018083 126.799685 
L 482.379316 129.806834 
L 490.740549 133.351276 
L 499.101782 135.318985 
L 507.463015 139.544556 
L 515.824248 143.394411 
L 524.185481 147.821673 
L 532.546714 151.61832 
L 540.907947 155.747939 
L 549.26918 159.795128 
L 557.630413 164.147319 
L 565.991646 167.792372 
L 574.352879 171.694217 
L 582.714112 176.420641 
L 591.075345 180.795099 
L 599.436578 186.25519 
L 607.797811 191.660558 
L 616.159044 195.593061 
L 624.520277 198.42229 
L 632.88151 201.637646 
L 641.242743 204.844432 
L 649.603976 209.861447 
L 657.965209 215.343636 
" clip-path="url(#pa0304b0ab7)" style="fill: none; stroke: #1f77b4; stroke-width: 1.5; stroke-linecap: square"/>
   </g>
   <g id="line2d_26">
    <path d="M 89.401364 76.548977 
L 97.762597 76.661868 
L 106.12383 76.887704 
L 114.485063 77.327796 
L 122.846296 77.929079 
L 131.207529 78.072461 
L 139.568762 77.602006 
L 147.929995 77.390971 
L 156.291228 76.97474 
L 164.652461 78.152877 
L 173.013694 79.894799 
L 181.374927 81.838907 
L 189.73616 83.0576 
L 198.097393 85.762241 
L 206.458626 86.606777 
L 214.819859 87.030769 
L 223.181092 87.187368 
L 231.542325 86.766637 
L 239.903558 86.076165 
L 248.264791 85.526495 
L 256.626024 85.013621 
L 264.987257 85.925864 
L 273.34849 86.512711 
L 281.709723 86.876127 
L 290.070956 87.015205 
L 298.432189 87.70096 
L 306.793422 88.160728 
L 315.154655 89.21709 
L 323.515888 90.406235 
L 331.877121 91.521699 
L 340.238354 91.842488 
L 348.599587 93.683683 
L 356.96082 94.16317 
L 365.322053 95.081557 
L 373.683286 96.438481 
L 382.044519 96.689898 
L 390.405752 97.842411 
L 398.766985 98.815203 
L 407.128218 98.733347 
L 415.489451 98.677365 
L 423.850684 99.624921 
L 432.211917 100.598334 
L 440.57315 101.649133 
L 448.934383 102.88036 
L 457.295617 103.46887 
L 465.65685 103.363439 
L 474.018083 103.696433 
L 482.379316 103.953614 
L 490.740549 104.135382 
L 499.101782 101.82362 
L 507.463015 103.348143 
L 515.824248 100.836524 
L 524.185481 101.544988 
L 532.546714 102.798417 
L 540.907947 102.59068 
L 549.26918 103.263866 
L 557.630413 102.72443 
L 565.991646 102.758779 
L 574.352879 103.233976 
L 582.714112 103.126892 
L 591.075345 102.052507 
L 599.436578 100.407996 
L 607.797811 99.058828 
L 616.159044 98.875653 
L 624.520277 96.365521 
L 632.88151 95.604972 
L 641.242743 94.40815 
L 649.603976 92.982024 
L 657.965209 91.564468 
L 666.326442 89.817062 
L 674.687675 88.425426 
L 683.048908 88.188422 
L 691.410141 88.124499 
L 699.771374 87.015433 
L 708.132607 86.483505 
L 716.49384 85.320846 
L 724.855073 84.763849 
L 733.216306 83.30602 
L 741.577539 79.96583 
L 749.938772 77.965927 
L 758.300005 74.556252 
L 766.661238 70.520885 
L 775.022471 68.148031 
L 783.383704 65.824679 
L 791.744937 63.991307 
L 800.10617 61.249094 
" clip-path="url(#pa0304b0ab7)" style="fill: none; stroke: #ff7f0e; stroke-width: 1.5; stroke-linecap: square"/>
   </g>
   <g id="line2d_27">
    <path d="M 89.401364 76.548977 
L 97.762597 76.069236 
L 106.12383 78.520588 
L 114.485063 80.968322 
L 122.846296 83.925394 
L 131.207529 86.052283 
L 139.568762 87.295955 
L 147.929995 87.809243 
L 156.291228 87.796475 
L 164.652461 88.491174 
L 173.013694 90.046286 
L 181.374927 91.997297 
L 189.73616 94.90889 
L 198.097393 97.081637 
L 206.458626 98.4628 
L 214.819859 100.543415 
L 223.181092 102.24166 
L 231.542325 101.909714 
L 239.903558 101.913509 
L 248.264791 102.560697 
L 256.626024 104.313343 
L 264.987257 106.244192 
L 273.34849 108.609625 
L 281.709723 110.894176 
L 290.070956 112.633889 
L 298.432189 113.77653 
L 306.793422 114.115554 
L 315.154655 114.010514 
L 323.515888 114.489977 
L 331.877121 115.759246 
L 340.238354 117.097441 
L 348.599587 118.812905 
L 356.96082 119.413013 
L 365.322053 122.190788 
L 373.683286 123.543955 
L 382.044519 124.347138 
L 390.405752 126.092517 
L 398.766985 128.522765 
L 407.128218 128.807722 
L 415.489451 130.498068 
L 423.850684 131.998756 
L 432.211917 134.030404 
L 440.57315 136.696199 
L 448.934383 139.07023 
L 457.295617 141.204347 
L 465.65685 142.327138 
L 474.018083 143.622648 
L 482.379316 144.268126 
L 490.740549 145.293274 
L 499.101782 145.721096 
L 507.463015 146.58155 
L 515.824248 147.824006 
L 524.185481 148.625999 
L 532.546714 149.142793 
L 540.907947 148.912185 
L 549.26918 148.243875 
L 557.630413 147.241759 
L 565.991646 148.222454 
L 574.352879 148.768481 
L 582.714112 148.829454 
L 591.075345 149.795838 
L 599.436578 151.36002 
L 607.797811 151.722136 
L 616.159044 149.571205 
L 624.520277 148.953039 
L 632.88151 147.604747 
L 641.242743 146.68027 
L 649.603976 146.505107 
L 657.965209 146.452819 
L 666.326442 145.680871 
L 674.687675 145.224973 
L 683.048908 144.47936 
L 691.410141 143.363164 
L 699.771374 141.888176 
L 708.132607 140.956268 
L 716.49384 140.440136 
L 724.855073 140.613965 
L 733.216306 140.763956 
L 741.577539 140.762939 
L 749.938772 141.291639 
L 758.300005 140.612271 
L 766.661238 139.050517 
L 775.022471 136.510116 
L 783.383704 131.309907 
L 791.744937 130.779017 
L 800.10617 130.056208 
" clip-path="url(#pa0304b0ab7)" style="fill: none; stroke: #2ca02c; stroke-width: 1.5; stroke-linecap: square"/>
   </g>
   <g id="line2d_28">
    <path d="M 89.401364 76.548977 
L 97.762597 76.488435 
L 106.12383 77.077802 
L 114.485063 77.235196 
L 122.846296 78.039957 
L 131.207529 78.616033 
L 139.568762 78.704899 
L 147.929995 78.871387 
L 156.291228 79.165785 
L 164.652461 79.381121 
L 173.013694 79.41337 
L 181.374927 79.467288 
L 189.73616 80.004953 
L 198.097393 80.973894 
L 206.458626 82.270214 
L 214.819859 85.642535 
L 223.181092 86.458729 
L 231.542325 88.731627 
L 239.903558 90.607893 
L 248.264791 92.138164 
L 256.626024 92.909987 
L 264.987257 93.694474 
L 273.34849 93.770496 
L 281.709723 94.063659 
L 290.070956 94.933584 
L 298.432189 96.122445 
L 306.793422 97.372467 
L 315.154655 98.837583 
L 323.515888 99.848451 
L 331.877121 100.456184 
L 340.238354 100.66049 
L 348.599587 100.512578 
L 356.96082 99.909336 
L 365.322053 100.085603 
L 373.683286 100.063576 
L 382.044519 100.717988 
L 390.405752 100.299264 
L 398.766985 99.836606 
L 407.128218 98.609693 
L 415.489451 98.008028 
L 423.850684 99.266789 
L 432.211917 99.813317 
L 440.57315 100.26539 
L 448.934383 100.571883 
L 457.295617 100.321513 
L 465.65685 100.029288 
L 474.018083 99.541312 
L 482.379316 98.909566 
L 490.740549 99.266699 
L 499.101782 99.89292 
L 507.463015 99.60537 
L 515.824248 97.684354 
L 524.185481 97.423861 
L 532.546714 97.538117 
L 540.907947 98.079422 
L 549.26918 99.254474 
L 557.630413 99.98354 
L 565.991646 99.958773 
L 574.352879 99.952962 
L 582.714112 99.452468 
L 591.075345 98.89564 
L 599.436578 98.633368 
L 607.797811 96.870766 
L 616.159044 94.596839 
L 624.520277 93.937831 
L 632.88151 93.695823 
L 641.242743 93.161767 
L 649.603976 92.285292 
L 657.965209 91.345378 
L 666.326442 90.63646 
L 674.687675 89.758311 
L 683.048908 88.794427 
L 691.410141 87.071889 
L 699.771374 84.838898 
L 708.132607 82.333377 
L 716.49384 79.592584 
L 724.855073 75.933386 
L 733.216306 72.164946 
L 741.577539 68.520118 
L 749.938772 65.025943 
L 758.300005 60.844848 
L 766.661238 58.890551 
L 775.022471 57.059696 
L 783.383704 53.691475 
L 791.744937 49.018732 
L 800.10617 43.963854 
L 808.467403 38.898633 
L 816.828636 34.48303 
" clip-path="url(#pa0304b0ab7)" style="fill: none; stroke: #d62728; stroke-width: 1.5; stroke-linecap: square"/>
   </g>
   <g id="line2d_29">
    <path d="M 89.401364 76.548977 
L 97.762597 76.697172 
L 106.12383 76.463111 
L 114.485063 76.205736 
L 122.846296 76.129608 
L 131.207529 75.307222 
L 139.568762 74.200471 
L 147.929995 74.043151 
L 156.291228 73.753492 
L 164.652461 73.690576 
L 173.013694 74.367898 
L 181.374927 75.166914 
L 189.73616 75.726403 
L 198.097393 76.251218 
L 206.458626 80.445386 
L 214.819859 80.280568 
L 223.181092 79.923982 
L 231.542325 80.35249 
L 239.903558 80.381762 
L 248.264791 81.091648 
L 256.626024 80.680393 
L 264.987257 80.845409 
L 273.34849 81.431659 
L 281.709723 81.769638 
L 290.070956 82.321977 
L 298.432189 83.705734 
L 306.793422 84.736989 
L 315.154655 85.106657 
L 323.515888 85.483404 
L 331.877121 85.712618 
L 340.238354 85.948488 
L 348.599587 86.602541 
L 356.96082 85.51346 
L 365.322053 89.164902 
L 373.683286 89.066333 
L 382.044519 89.746112 
L 390.405752 89.712076 
L 398.766985 89.170222 
L 407.128218 88.635348 
L 415.489451 88.725214 
L 423.850684 88.359523 
L 432.211917 88.053221 
L 440.57315 88.064016 
L 448.934383 87.723424 
L 457.295617 87.186339 
L 465.65685 85.681461 
L 474.018083 84.804606 
L 482.379316 83.836032 
L 490.740549 83.342497 
L 499.101782 83.376231 
L 507.463015 82.60015 
L 515.824248 82.35292 
L 524.185481 82.377989 
L 532.546714 79.949015 
L 540.907947 79.337951 
L 549.26918 77.86995 
L 557.630413 77.913056 
L 565.991646 75.660385 
L 574.352879 75.795622 
L 582.714112 75.643989 
L 591.075345 75.309454 
L 599.436578 74.124134 
L 607.797811 73.092543 
L 616.159044 71.696062 
L 624.520277 70.913512 
L 632.88151 69.552207 
L 641.242743 68.297696 
L 649.603976 67.109984 
L 657.965209 65.424227 
L 666.326442 63.946607 
L 674.687675 62.096875 
L 683.048908 61.028933 
L 691.410141 59.318657 
L 699.771374 57.800945 
L 708.132607 56.549134 
L 716.49384 55.51308 
L 724.855073 54.267013 
L 733.216306 53.007821 
L 741.577539 51.083323 
L 749.938772 50.131077 
L 758.300005 47.208993 
L 766.661238 43.862126 
" clip-path="url(#pa0304b0ab7)" style="fill: none; stroke: #9467bd; stroke-width: 1.5; stroke-linecap: square"/>
   </g>
   <g id="line2d_30">
    <path d="M 89.401364 76.548977 
L 97.762597 75.76236 
L 106.12383 76.269428 
L 114.485063 75.443655 
L 122.846296 74.569314 
L 131.207529 74.673417 
L 139.568762 74.518874 
L 147.929995 74.360923 
L 156.291228 74.40339 
L 164.652461 74.078284 
L 173.013694 73.949734 
L 181.374927 72.472143 
L 189.73616 74.532199 
L 198.097393 75.651301 
L 206.458626 76.702518 
L 214.819859 78.095845 
L 223.181092 79.315085 
L 231.542325 80.718869 
L 239.903558 80.607565 
L 248.264791 81.449675 
L 256.626024 84.530219 
L 264.987257 86.605982 
L 273.34849 87.62424 
L 281.709723 86.091478 
L 290.070956 84.888165 
L 298.432189 85.145271 
L 306.793422 86.244269 
L 315.154655 85.817131 
L 323.515888 84.428999 
L 331.877121 85.629642 
L 340.238354 86.176457 
L 348.599587 87.715409 
L 356.96082 87.981734 
L 365.322053 86.511763 
L 373.683286 85.620622 
L 382.044519 87.417675 
L 390.405752 90.71905 
L 398.766985 91.665136 
L 407.128218 92.159673 
L 415.489451 92.871482 
L 423.850684 94.675284 
L 432.211917 95.821518 
L 440.57315 96.104429 
L 448.934383 96.347488 
L 457.295617 96.962574 
L 465.65685 96.354775 
L 474.018083 96.479847 
L 482.379316 98.727574 
L 490.740549 99.496397 
L 499.101782 100.639362 
L 507.463015 100.356073 
L 515.824248 100.103391 
L 524.185481 101.677941 
L 532.546714 100.475124 
L 540.907947 99.007006 
L 549.26918 98.005251 
L 557.630413 96.951132 
L 565.991646 97.410005 
L 574.352879 98.683118 
L 582.714112 96.449124 
L 591.075345 95.7469 
L 599.436578 96.917261 
L 607.797811 95.69043 
L 616.159044 95.294084 
L 624.520277 93.465382 
L 632.88151 92.732251 
L 641.242743 92.113227 
L 649.603976 91.846439 
L 657.965209 91.763533 
L 666.326442 91.027246 
L 674.687675 89.103951 
L 683.048908 88.676178 
L 691.410141 89.05086 
L 699.771374 89.581279 
L 708.132607 90.57993 
L 716.49384 90.19966 
L 724.855073 90.482541 
L 733.216306 88.297601 
L 741.577539 83.274892 
L 749.938772 80.8619 
" clip-path="url(#pa0304b0ab7)" style="fill: none; stroke: #8c564b; stroke-width: 1.5; stroke-linecap: square"/>
   </g>
   <g id="patch_3">
    <path d="M 53.03 224.386667 
L 53.03 25.44 
" style="fill: none; stroke: #000000; stroke-width: 0.8; stroke-linejoin: miter; stroke-linecap: square"/>
   </g>
   <g id="patch_4">
    <path d="M 853.2 224.386667 
L 853.2 25.44 
" style="fill: none; stroke: #000000; stroke-width: 0.8; stroke-linejoin: miter; stroke-linecap: square"/>
   </g>
   <g id="patch_5">
    <path d="M 53.03 224.386667 
L 853.2 224.386667 
" style="fill: none; stroke: #000000; stroke-width: 0.8; stroke-linejoin: miter; stroke-linecap: square"/>
   </g>
   <g id="patch_6">
    <path d="M 53.03 25.44 
L 853.2 25.44 
" style="fill: none; stroke: #000000; stroke-width: 0.8; stroke-linejoin: miter; stroke-linecap: square"/>
   </g>
   <g id="text_14">
    <!-- Position Errors Over Time -->
    <g transform="translate(377.176563 19.44)scale(0.12 -0.12)">
     <defs>
      <path id="DejaVuSans-50" d="M 1259 4147 
L 1259 2394 
L 2053 2394 
Q 2494 2394 2734 2622 
Q 2975 2850 2975 3272 
Q 2975 3691 2734 3919 
Q 2494 4147 2053 4147 
L 1259 4147 
z
M 628 4666 
L 2053 4666 
Q 2838 4666 3239 4311 
Q 3641 3956 3641 3272 
Q 3641 2581 3239 2228 
Q 2838 1875 2053 1875 
L 1259 1875 
L 1259 0 
L 628 0 
L 628 4666 
z
" transform="scale(0.015625)"/>
      <path id="DejaVuSans-73" d="M 2834 3397 
L 2834 2853 
Q 2591 2978 2328 3040 
Q 2066 3103 1784 3103 
Q 1356 3103 1142 2972 
Q 928 2841 928 2578 
Q 928 2378 1081 2264 
Q 1234 2150 1697 2047 
L 1894 2003 
Q 2506 1872 2764 1633 
Q 3022 1394 3022 966 
Q 3022 478 2636 193 
Q 2250 -91 1575 -91 
Q 1294 -91 989 -36 
Q 684 19 347 128 
L 347 722 
Q 666 556 975 473 
Q 1284 391 1588 391 
Q 1994 391 2212 530 
Q 2431 669 2431 922 
Q 2431 1156 2273 1281 
Q 2116 1406 1581 1522 
L 1381 1569 
Q 847 1681 609 1914 
Q 372 2147 372 2553 
Q 372 3047 722 3315 
Q 1072 3584 1716 3584 
Q 2034 3584 2315 3537 
Q 2597 3491 2834 3397 
z
" transform="scale(0.015625)"/>
      <path id="DejaVuSans-69" d="M 603 3500 
L 1178 3500 
L 1178 0 
L 603 0 
L 603 3500 
z
M 603 4863 
L 1178 4863 
L 1178 4134 
L 603 4134 
L 603 4863 
z
" transform="scale(0.015625)"/>
      <path id="DejaVuSans-74" d="M 1172 4494 
L 1172 3500 
L 2356 3500 
L 2356 3053 
L 1172 3053 
L 1172 1153 
Q 1172 725 1289 603 
Q 1406 481 1766 481 
L 2356 481 
L 2356 0 
L 1766 0 
Q 1100 0 847 248 
Q 594 497 594 1153 
L 594 3053 
L 172 3053 
L 172 3500 
L 594 3500 
L 594 4494 
L 1172 4494 
z
" transform="scale(0.015625)"/>
      <path id="DejaVuSans-6e" d="M 3513 2113 
L 3513 0 
L 2938 0 
L 2938 2094 
Q 2938 2591 2744 2837 
Q 2550 3084 2163 3084 
Q 1697 3084 1428 2787 
Q 1159 2491 1159 1978 
L 1159 0 
L 581 0 
L 581 3500 
L 1159 3500 
L 1159 2956 
Q 1366 3272 1645 3428 
Q 1925 3584 2291 3584 
Q 2894 3584 3203 3211 
Q 3513 2838 3513 2113 
z
" transform="scale(0.015625)"/>
      <path id="DejaVuSans-4f" d="M 2522 4238 
Q 1834 4238 1429 3725 
Q 1025 3213 1025 2328 
Q 1025 1447 1429 934 
Q 1834 422 2522 422 
Q 3209 422 3611 934 
Q 4013 1447 4013 2328 
Q 4013 3213 3611 3725 
Q 3209 4238 2522 4238 
z
M 2522 4750 
Q 3503 4750 4090 4092 
Q 4678 3434 4678 2328 
Q 4678 1225 4090 567 
Q 3503 -91 2522 -91 
Q 1538 -91 948 565 
Q 359 1222 359 2328 
Q 359 3434 948 4092 
Q 1538 4750 2522 4750 
z
" transform="scale(0.015625)"/>
      <path id="DejaVuSans-76" d="M 191 3500 
L 800 3500 
L 1894 563 
L 2988 3500 
L 3597 3500 
L 2284 0 
L 1503 0 
L 191 3500 
z
" transform="scale(0.015625)"/>
      <path id="DejaVuSans-65" d="M 3597 1894 
L 3597 1613 
L 953 1613 
Q 991 1019 1311 708 
Q 1631 397 2203 397 
Q 2534 397 2845 478 
Q 3156 559 3463 722 
L 3463 178 
Q 3153 47 2828 -22 
Q 2503 -91 2169 -91 
Q 1331 -91 842 396 
Q 353 884 353 1716 
Q 353 2575 817 3079 
Q 1281 3584 2069 3584 
Q 2775 3584 3186 3129 
Q 3597 2675 3597 1894 
z
M 3022 2063 
Q 3016 2534 2758 2815 
Q 2500 3097 2075 3097 
Q 1594 3097 1305 2825 
Q 1016 2553 972 2059 
L 3022 2063 
z
" transform="scale(0.015625)"/>
      <path id="DejaVuSans-54" d="M -19 4666 
L 3928 4666 
L 3928 4134 
L 2272 4134 
L 2272 0 
L 1638 0 
L 1638 4134 
L -19 4134 
L -19 4666 
z
" transform="scale(0.015625)"/>
     </defs>
     <use xlink:href="#DejaVuSans-50"/>
     <use xlink:href="#DejaVuSans-6f" x="56.677734"/>
     <use xlink:href="#DejaVuSans-73" x="117.859375"/>
     <use xlink:href="#DejaVuSans-69" x="169.958984"/>
     <use xlink:href="#DejaVuSans-74" x="197.742188"/>
     <use xlink:href="#DejaVuSans-69" x="236.951172"/>
     <use xlink:href="#DejaVuSans-6f" x="264.734375"/>
     <use xlink:href="#DejaVuSans-6e" x="325.916016"/>
     <use xlink:href="#DejaVuSans-20" x="389.294922"/>
     <use xlink:href="#DejaVuSans-45" x="421.082031"/>
     <use xlink:href="#DejaVuSans-72" x="484.265625"/>
     <use xlink:href="#DejaVuSans-72" x="523.628906"/>
     <use xlink:href="#DejaVuSans-6f" x="562.492188"/>
     <use xlink:href="#DejaVuSans-72" x="623.673828"/>
     <use xlink:href="#DejaVuSans-73" x="664.787109"/>
     <use xlink:href="#DejaVuSans-20" x="716.886719"/>
     <use xlink:href="#DejaVuSans-4f" x="748.673828"/>
     <use xlink:href="#DejaVuSans-76" x="827.384766"/>
     <use xlink:href="#DejaVuSans-65" x="886.564453"/>
     <use xlink:href="#DejaVuSans-72" x="948.087891"/>
     <use xlink:href="#DejaVuSans-20" x="989.201172"/>
     <use xlink:href="#DejaVuSans-54" x="1020.988281"/>
     <use xlink:href="#DejaVuSans-69" x="1078.947266"/>
     <use xlink:href="#DejaVuSans-6d" x="1106.730469"/>
     <use xlink:href="#DejaVuSans-65" x="1204.142578"/>
    </g>
   </g>
   <g id="legend_1">
    <g id="patch_7">
     <path d="M 60.03 219.386667 
L 150.228438 219.386667 
Q 152.228438 219.386667 152.228438 217.386667 
L 152.228438 130.317917 
Q 152.228438 128.317917 150.228438 128.317917 
L 60.03 128.317917 
Q 58.03 128.317917 58.03 130.317917 
L 58.03 217.386667 
Q 58.03 219.386667 60.03 219.386667 
z
" style="fill: #ffffff; opacity: 0.8; stroke: #cccccc; stroke-linejoin: miter"/>
    </g>
    <g id="line2d_31">
     <path d="M 62.03 136.416354 
L 72.03 136.416354 
L 82.03 136.416354 
" style="fill: none; stroke: #1f77b4; stroke-width: 1.5; stroke-linecap: square"/>
    </g>
    <g id="text_15">
     <!-- trajectory 1 -->
     <g transform="translate(90.03 139.916354)scale(0.1 -0.1)">
      <defs>
       <path id="DejaVuSans-61" d="M 2194 1759 
Q 1497 1759 1228 1600 
Q 959 1441 959 1056 
Q 959 750 1161 570 
Q 1363 391 1709 391 
Q 2188 391 2477 730 
Q 2766 1069 2766 1631 
L 2766 1759 
L 2194 1759 
z
M 3341 1997 
L 3341 0 
L 2766 0 
L 2766 531 
Q 2569 213 2275 61 
Q 1981 -91 1556 -91 
Q 1019 -91 701 211 
Q 384 513 384 1019 
Q 384 1609 779 1909 
Q 1175 2209 1959 2209 
L 2766 2209 
L 2766 2266 
Q 2766 2663 2505 2880 
Q 2244 3097 1772 3097 
Q 1472 3097 1187 3025 
Q 903 2953 641 2809 
L 641 3341 
Q 956 3463 1253 3523 
Q 1550 3584 1831 3584 
Q 2591 3584 2966 3190 
Q 3341 2797 3341 1997 
z
" transform="scale(0.015625)"/>
       <path id="DejaVuSans-6a" d="M 603 3500 
L 1178 3500 
L 1178 -63 
Q 1178 -731 923 -1031 
Q 669 -1331 103 -1331 
L -116 -1331 
L -116 -844 
L 38 -844 
Q 366 -844 484 -692 
Q 603 -541 603 -63 
L 603 3500 
z
M 603 4863 
L 1178 4863 
L 1178 4134 
L 603 4134 
L 603 4863 
z
" transform="scale(0.015625)"/>
       <path id="DejaVuSans-63" d="M 3122 3366 
L 3122 2828 
Q 2878 2963 2633 3030 
Q 2388 3097 2138 3097 
Q 1578 3097 1268 2742 
Q 959 2388 959 1747 
Q 959 1106 1268 751 
Q 1578 397 2138 397 
Q 2388 397 2633 464 
Q 2878 531 3122 666 
L 3122 134 
Q 2881 22 2623 -34 
Q 2366 -91 2075 -91 
Q 1284 -91 818 406 
Q 353 903 353 1747 
Q 353 2603 823 3093 
Q 1294 3584 2113 3584 
Q 2378 3584 2631 3529 
Q 2884 3475 3122 3366 
z
" transform="scale(0.015625)"/>
       <path id="DejaVuSans-79" d="M 2059 -325 
Q 1816 -950 1584 -1140 
Q 1353 -1331 966 -1331 
L 506 -1331 
L 506 -850 
L 844 -850 
Q 1081 -850 1212 -737 
Q 1344 -625 1503 -206 
L 1606 56 
L 191 3500 
L 800 3500 
L 1894 763 
L 2988 3500 
L 3597 3500 
L 2059 -325 
z
" transform="scale(0.015625)"/>
      </defs>
      <use xlink:href="#DejaVuSans-74"/>
      <use xlink:href="#DejaVuSans-72" x="39.208984"/>
      <use xlink:href="#DejaVuSans-61" x="80.322266"/>
      <use xlink:href="#DejaVuSans-6a" x="141.601562"/>
      <use xlink:href="#DejaVuSans-65" x="169.384766"/>
      <use xlink:href="#DejaVuSans-63" x="230.908203"/>
      <use xlink:href="#DejaVuSans-74" x="285.888672"/>
      <use xlink:href="#DejaVuSans-6f" x="325.097656"/>
      <use xlink:href="#DejaVuSans-72" x="386.279297"/>
      <use xlink:href="#DejaVuSans-79" x="427.392578"/>
      <use xlink:href="#DejaVuSans-20" x="486.572266"/>
      <use xlink:href="#DejaVuSans-31" x="518.359375"/>
     </g>
    </g>
    <g id="line2d_32">
     <path d="M 62.03 151.094479 
L 72.03 151.094479 
L 82.03 151.094479 
" style="fill: none; stroke: #ff7f0e; stroke-width: 1.5; stroke-linecap: square"/>
    </g>
    <g id="text_16">
     <!-- trajectory 2 -->
     <g transform="translate(90.03 154.594479)scale(0.1 -0.1)">
      <use xlink:href="#DejaVuSans-74"/>
      <use xlink:href="#DejaVuSans-72" x="39.208984"/>
      <use xlink:href="#DejaVuSans-61" x="80.322266"/>
      <use xlink:href="#DejaVuSans-6a" x="141.601562"/>
      <use xlink:href="#DejaVuSans-65" x="169.384766"/>
      <use xlink:href="#DejaVuSans-63" x="230.908203"/>
      <use xlink:href="#DejaVuSans-74" x="285.888672"/>
      <use xlink:href="#DejaVuSans-6f" x="325.097656"/>
      <use xlink:href="#DejaVuSans-72" x="386.279297"/>
      <use xlink:href="#DejaVuSans-79" x="427.392578"/>
      <use xlink:href="#DejaVuSans-20" x="486.572266"/>
      <use xlink:href="#DejaVuSans-32" x="518.359375"/>
     </g>
    </g>
    <g id="line2d_33">
     <path d="M 62.03 165.772604 
L 72.03 165.772604 
L 82.03 165.772604 
" style="fill: none; stroke: #2ca02c; stroke-width: 1.5; stroke-linecap: square"/>
    </g>
    <g id="text_17">
     <!-- trajectory 3 -->
     <g transform="translate(90.03 169.272604)scale(0.1 -0.1)">
      <defs>
       <path id="DejaVuSans-33" d="M 2597 2516 
Q 3050 2419 3304 2112 
Q 3559 1806 3559 1356 
Q 3559 666 3084 287 
Q 2609 -91 1734 -91 
Q 1441 -91 1130 -33 
Q 819 25 488 141 
L 488 750 
Q 750 597 1062 519 
Q 1375 441 1716 441 
Q 2309 441 2620 675 
Q 2931 909 2931 1356 
Q 2931 1769 2642 2001 
Q 2353 2234 1838 2234 
L 1294 2234 
L 1294 2753 
L 1863 2753 
Q 2328 2753 2575 2939 
Q 2822 3125 2822 3475 
Q 2822 3834 2567 4026 
Q 2313 4219 1838 4219 
Q 1578 4219 1281 4162 
Q 984 4106 628 3988 
L 628 4550 
Q 988 4650 1302 4700 
Q 1616 4750 1894 4750 
Q 2613 4750 3031 4423 
Q 3450 4097 3450 3541 
Q 3450 3153 3228 2886 
Q 3006 2619 2597 2516 
z
" transform="scale(0.015625)"/>
      </defs>
      <use xlink:href="#DejaVuSans-74"/>
      <use xlink:href="#DejaVuSans-72" x="39.208984"/>
      <use xlink:href="#DejaVuSans-61" x="80.322266"/>
      <use xlink:href="#DejaVuSans-6a" x="141.601562"/>
      <use xlink:href="#DejaVuSans-65" x="169.384766"/>
      <use xlink:href="#DejaVuSans-63" x="230.908203"/>
      <use xlink:href="#DejaVuSans-74" x="285.888672"/>
      <use xlink:href="#DejaVuSans-6f" x="325.097656"/>
      <use xlink:href="#DejaVuSans-72" x="386.279297"/>
      <use xlink:href="#DejaVuSans-79" x="427.392578"/>
      <use xlink:href="#DejaVuSans-20" x="486.572266"/>
      <use xlink:href="#DejaVuSans-33" x="518.359375"/>
     </g>
    </g>
    <g id="line2d_34">
     <path d="M 62.03 180.450729 
L 72.03 180.450729 
L 82.03 180.450729 
" style="fill: none; stroke: #d62728; stroke-width: 1.5; stroke-linecap: square"/>
    </g>
    <g id="text_18">
     <!-- trajectory 4 -->
     <g transform="translate(90.03 183.950729)scale(0.1 -0.1)">
      <use xlink:href="#DejaVuSans-74"/>
      <use xlink:href="#DejaVuSans-72" x="39.208984"/>
      <use xlink:href="#DejaVuSans-61" x="80.322266"/>
      <use xlink:href="#DejaVuSans-6a" x="141.601562"/>
      <use xlink:href="#DejaVuSans-65" x="169.384766"/>
      <use xlink:href="#DejaVuSans-63" x="230.908203"/>
      <use xlink:href="#DejaVuSans-74" x="285.888672"/>
      <use xlink:href="#DejaVuSans-6f" x="325.097656"/>
      <use xlink:href="#DejaVuSans-72" x="386.279297"/>
      <use xlink:href="#DejaVuSans-79" x="427.392578"/>
      <use xlink:href="#DejaVuSans-20" x="486.572266"/>
      <use xlink:href="#DejaVuSans-34" x="518.359375"/>
     </g>
    </g>
    <g id="line2d_35">
     <path d="M 62.03 195.128854 
L 72.03 195.128854 
L 82.03 195.128854 
" style="fill: none; stroke: #9467bd; stroke-width: 1.5; stroke-linecap: square"/>
    </g>
    <g id="text_19">
     <!-- trajectory 5 -->
     <g transform="translate(90.03 198.628854)scale(0.1 -0.1)">
      <use xlink:href="#DejaVuSans-74"/>
      <use xlink:href="#DejaVuSans-72" x="39.208984"/>
      <use xlink:href="#DejaVuSans-61" x="80.322266"/>
      <use xlink:href="#DejaVuSans-6a" x="141.601562"/>
      <use xlink:href="#DejaVuSans-65" x="169.384766"/>
      <use xlink:href="#DejaVuSans-63" x="230.908203"/>
      <use xlink:href="#DejaVuSans-74" x="285.888672"/>
      <use xlink:href="#DejaVuSans-6f" x="325.097656"/>
      <use xlink:href="#DejaVuSans-72" x="386.279297"/>
      <use xlink:href="#DejaVuSans-79" x="427.392578"/>
      <use xlink:href="#DejaVuSans-20" x="486.572266"/>
      <use xlink:href="#DejaVuSans-35" x="518.359375"/>
     </g>
    </g>
    <g id="line2d_36">
     <path d="M 62.03 209.806979 
L 72.03 209.806979 
L 82.03 209.806979 
" style="fill: none; stroke: #8c564b; stroke-width: 1.5; stroke-linecap: square"/>
    </g>
    <g id="text_20">
     <!-- trajectory 6 -->
     <g transform="translate(90.03 213.306979)scale(0.1 -0.1)">
      <use xlink:href="#DejaVuSans-74"/>
      <use xlink:href="#DejaVuSans-72" x="39.208984"/>
      <use xlink:href="#DejaVuSans-61" x="80.322266"/>
      <use xlink:href="#DejaVuSans-6a" x="141.601562"/>
      <use xlink:href="#DejaVuSans-65" x="169.384766"/>
      <use xlink:href="#DejaVuSans-63" x="230.908203"/>
      <use xlink:href="#DejaVuSans-74" x="285.888672"/>
      <use xlink:href="#DejaVuSans-6f" x="325.097656"/>
      <use xlink:href="#DejaVuSans-72" x="386.279297"/>
      <use xlink:href="#DejaVuSans-79" x="427.392578"/>
      <use xlink:href="#DejaVuSans-20" x="486.572266"/>
      <use xlink:href="#DejaVuSans-36" x="518.359375"/>
     </g>
    </g>
   </g>
  </g>
  <g id="axes_2">
   <g id="patch_8">
    <path d="M 53.03 451.213333 
L 853.2 451.213333 
L 853.2 252.266667 
L 53.03 252.266667 
z
" style="fill: #ffffff"/>
   </g>
   <g id="matplotlib.axis_3">
    <g id="xtick_6">
     <g id="line2d_37">
      <path d="M 89.401364 451.213333 
L 89.401364 252.266667 
" clip-path="url(#p4c8f98cefb)" style="fill: none; stroke: #b0b0b0; stroke-opacity: 0.3; stroke-width: 0.8; stroke-linecap: square"/>
     </g>
     <g id="line2d_38">
      <g>
       <use xlink:href="#mfd2383164f" x="89.401364" y="451.213333" style="stroke: #000000; stroke-width: 0.8"/>
      </g>
     </g>
     <g id="text_21">
      <!-- 0.0 -->
      <g transform="translate(81.449801 465.811771)scale(0.1 -0.1)">
       <use xlink:href="#DejaVuSans-30"/>
       <use xlink:href="#DejaVuSans-2e" x="63.623047"/>
       <use xlink:href="#DejaVuSans-30" x="95.410156"/>
      </g>
     </g>
    </g>
    <g id="xtick_7">
     <g id="line2d_39">
      <path d="M 256.626024 451.213333 
L 256.626024 252.266667 
" clip-path="url(#p4c8f98cefb)" style="fill: none; stroke: #b0b0b0; stroke-opacity: 0.3; stroke-width: 0.8; stroke-linecap: square"/>
     </g>
     <g id="line2d_40">
      <g>
       <use xlink:href="#mfd2383164f" x="256.626024" y="451.213333" style="stroke: #000000; stroke-width: 0.8"/>
      </g>
     </g>
     <g id="text_22">
      <!-- 0.2 -->
      <g transform="translate(248.674462 465.811771)scale(0.1 -0.1)">
       <use xlink:href="#DejaVuSans-30"/>
       <use xlink:href="#DejaVuSans-2e" x="63.623047"/>
       <use xlink:href="#DejaVuSans-32" x="95.410156"/>
      </g>
     </g>
    </g>
    <g id="xtick_8">
     <g id="line2d_41">
      <path d="M 423.850684 451.213333 
L 423.850684 252.266667 
" clip-path="url(#p4c8f98cefb)" style="fill: none; stroke: #b0b0b0; stroke-opacity: 0.3; stroke-width: 0.8; stroke-linecap: square"/>
     </g>
     <g id="line2d_42">
      <g>
       <use xlink:href="#mfd2383164f" x="423.850684" y="451.213333" style="stroke: #000000; stroke-width: 0.8"/>
      </g>
     </g>
     <g id="text_23">
      <!-- 0.4 -->
      <g transform="translate(415.899122 465.811771)scale(0.1 -0.1)">
       <use xlink:href="#DejaVuSans-30"/>
       <use xlink:href="#DejaVuSans-2e" x="63.623047"/>
       <use xlink:href="#DejaVuSans-34" x="95.410156"/>
      </g>
     </g>
    </g>
    <g id="xtick_9">
     <g id="line2d_43">
      <path d="M 591.075345 451.213333 
L 591.075345 252.266667 
" clip-path="url(#p4c8f98cefb)" style="fill: none; stroke: #b0b0b0; stroke-opacity: 0.3; stroke-width: 0.8; stroke-linecap: square"/>
     </g>
     <g id="line2d_44">
      <g>
       <use xlink:href="#mfd2383164f" x="591.075345" y="451.213333" style="stroke: #000000; stroke-width: 0.8"/>
      </g>
     </g>
     <g id="text_24">
      <!-- 0.6 -->
      <g transform="translate(583.123782 465.811771)scale(0.1 -0.1)">
       <use xlink:href="#DejaVuSans-30"/>
       <use xlink:href="#DejaVuSans-2e" x="63.623047"/>
       <use xlink:href="#DejaVuSans-36" x="95.410156"/>
      </g>
     </g>
    </g>
    <g id="xtick_10">
     <g id="line2d_45">
      <path d="M 758.300005 451.213333 
L 758.300005 252.266667 
" clip-path="url(#p4c8f98cefb)" style="fill: none; stroke: #b0b0b0; stroke-opacity: 0.3; stroke-width: 0.8; stroke-linecap: square"/>
     </g>
     <g id="line2d_46">
      <g>
       <use xlink:href="#mfd2383164f" x="758.300005" y="451.213333" style="stroke: #000000; stroke-width: 0.8"/>
      </g>
     </g>
     <g id="text_25">
      <!-- 0.8 -->
      <g transform="translate(750.348443 465.811771)scale(0.1 -0.1)">
       <use xlink:href="#DejaVuSans-30"/>
       <use xlink:href="#DejaVuSans-2e" x="63.623047"/>
       <use xlink:href="#DejaVuSans-38" x="95.410156"/>
      </g>
     </g>
    </g>
   </g>
   <g id="matplotlib.axis_4">
    <g id="ytick_8">
     <g id="line2d_47">
      <path d="M 53.03 432.541196 
L 853.2 432.541196 
" clip-path="url(#p4c8f98cefb)" style="fill: none; stroke: #b0b0b0; stroke-opacity: 0.3; stroke-width: 0.8; stroke-linecap: square"/>
     </g>
     <g id="line2d_48">
      <g>
       <use xlink:href="#mdcf0478247" x="53.03" y="432.541196" style="stroke: #000000; stroke-width: 0.8"/>
      </g>
     </g>
     <g id="text_26">
      <!-- −30 -->
      <g transform="translate(24.925313 436.340415)scale(0.1 -0.1)">
       <use xlink:href="#DejaVuSans-2212"/>
       <use xlink:href="#DejaVuSans-33" x="83.789062"/>
       <use xlink:href="#DejaVuSans-30" x="147.412109"/>
      </g>
     </g>
    </g>
    <g id="ytick_9">
     <g id="line2d_49">
      <path d="M 53.03 405.576038 
L 853.2 405.576038 
" clip-path="url(#p4c8f98cefb)" style="fill: none; stroke: #b0b0b0; stroke-opacity: 0.3; stroke-width: 0.8; stroke-linecap: square"/>
     </g>
     <g id="line2d_50">
      <g>
       <use xlink:href="#mdcf0478247" x="53.03" y="405.576038" style="stroke: #000000; stroke-width: 0.8"/>
      </g>
     </g>
     <g id="text_27">
      <!-- −25 -->
      <g transform="translate(24.925313 409.375257)scale(0.1 -0.1)">
       <use xlink:href="#DejaVuSans-2212"/>
       <use xlink:href="#DejaVuSans-32" x="83.789062"/>
       <use xlink:href="#DejaVuSans-35" x="147.412109"/>
      </g>
     </g>
    </g>
    <g id="ytick_10">
     <g id="line2d_51">
      <path d="M 53.03 378.61088 
L 853.2 378.61088 
" clip-path="url(#p4c8f98cefb)" style="fill: none; stroke: #b0b0b0; stroke-opacity: 0.3; stroke-width: 0.8; stroke-linecap: square"/>
     </g>
     <g id="line2d_52">
      <g>
       <use xlink:href="#mdcf0478247" x="53.03" y="378.61088" style="stroke: #000000; stroke-width: 0.8"/>
      </g>
     </g>
     <g id="text_28">
      <!-- −20 -->
      <g transform="translate(24.925313 382.410099)scale(0.1 -0.1)">
       <use xlink:href="#DejaVuSans-2212"/>
       <use xlink:href="#DejaVuSans-32" x="83.789062"/>
       <use xlink:href="#DejaVuSans-30" x="147.412109"/>
      </g>
     </g>
    </g>
    <g id="ytick_11">
     <g id="line2d_53">
      <path d="M 53.03 351.645722 
L 853.2 351.645722 
" clip-path="url(#p4c8f98cefb)" style="fill: none; stroke: #b0b0b0; stroke-opacity: 0.3; stroke-width: 0.8; stroke-linecap: square"/>
     </g>
     <g id="line2d_54">
      <g>
       <use xlink:href="#mdcf0478247" x="53.03" y="351.645722" style="stroke: #000000; stroke-width: 0.8"/>
      </g>
     </g>
     <g id="text_29">
      <!-- −15 -->
      <g transform="translate(24.925313 355.44494)scale(0.1 -0.1)">
       <use xlink:href="#DejaVuSans-2212"/>
       <use xlink:href="#DejaVuSans-31" x="83.789062"/>
       <use xlink:href="#DejaVuSans-35" x="147.412109"/>
      </g>
     </g>
    </g>
    <g id="ytick_12">
     <g id="line2d_55">
      <path d="M 53.03 324.680563 
L 853.2 324.680563 
" clip-path="url(#p4c8f98cefb)" style="fill: none; stroke: #b0b0b0; stroke-opacity: 0.3; stroke-width: 0.8; stroke-linecap: square"/>
     </g>
     <g id="line2d_56">
      <g>
       <use xlink:href="#mdcf0478247" x="53.03" y="324.680563" style="stroke: #000000; stroke-width: 0.8"/>
      </g>
     </g>
     <g id="text_30">
      <!-- −10 -->
      <g transform="translate(24.925313 328.479782)scale(0.1 -0.1)">
       <use xlink:href="#DejaVuSans-2212"/>
       <use xlink:href="#DejaVuSans-31" x="83.789062"/>
       <use xlink:href="#DejaVuSans-30" x="147.412109"/>
      </g>
     </g>
    </g>
    <g id="ytick_13">
     <g id="line2d_57">
      <path d="M 53.03 297.715405 
L 853.2 297.715405 
" clip-path="url(#p4c8f98cefb)" style="fill: none; stroke: #b0b0b0; stroke-opacity: 0.3; stroke-width: 0.8; stroke-linecap: square"/>
     </g>
     <g id="line2d_58">
      <g>
       <use xlink:href="#mdcf0478247" x="53.03" y="297.715405" style="stroke: #000000; stroke-width: 0.8"/>
      </g>
     </g>
     <g id="text_31">
      <!-- −5 -->
      <g transform="translate(31.287813 301.514624)scale(0.1 -0.1)">
       <use xlink:href="#DejaVuSans-2212"/>
       <use xlink:href="#DejaVuSans-35" x="83.789062"/>
      </g>
     </g>
    </g>
    <g id="ytick_14">
     <g id="line2d_59">
      <path d="M 53.03 270.750247 
L 853.2 270.750247 
" clip-path="url(#p4c8f98cefb)" style="fill: none; stroke: #b0b0b0; stroke-opacity: 0.3; stroke-width: 0.8; stroke-linecap: square"/>
     </g>
     <g id="line2d_60">
      <g>
       <use xlink:href="#mdcf0478247" x="53.03" y="270.750247" style="stroke: #000000; stroke-width: 0.8"/>
      </g>
     </g>
     <g id="text_32">
      <!-- 0 -->
      <g transform="translate(39.6675 274.549466)scale(0.1 -0.1)">
       <use xlink:href="#DejaVuSans-30"/>
      </g>
     </g>
    </g>
    <g id="text_33">
     <!-- Y Error (mm) -->
     <g transform="translate(18.845625 383.799375)rotate(-90)scale(0.1 -0.1)">
      <defs>
       <path id="DejaVuSans-59" d="M -13 4666 
L 666 4666 
L 1959 2747 
L 3244 4666 
L 3922 4666 
L 2272 2222 
L 2272 0 
L 1638 0 
L 1638 2222 
L -13 4666 
z
" transform="scale(0.015625)"/>
      </defs>
      <use xlink:href="#DejaVuSans-59"/>
      <use xlink:href="#DejaVuSans-20" x="61.083984"/>
      <use xlink:href="#DejaVuSans-45" x="92.871094"/>
      <use xlink:href="#DejaVuSans-72" x="156.054688"/>
      <use xlink:href="#DejaVuSans-72" x="195.417969"/>
      <use xlink:href="#DejaVuSans-6f" x="234.28125"/>
      <use xlink:href="#DejaVuSans-72" x="295.462891"/>
      <use xlink:href="#DejaVuSans-20" x="336.576172"/>
      <use xlink:href="#DejaVuSans-28" x="368.363281"/>
      <use xlink:href="#DejaVuSans-6d" x="407.376953"/>
      <use xlink:href="#DejaVuSans-6d" x="504.789062"/>
      <use xlink:href="#DejaVuSans-29" x="602.201172"/>
     </g>
    </g>
   </g>
   <g id="line2d_61">
    <path d="M 89.401364 270.750247 
L 97.762597 271.10795 
L 106.12383 271.704152 
L 114.485063 272.533444 
L 122.846296 274.248367 
L 131.207529 275.737942 
L 139.568762 277.023725 
L 147.929995 278.132669 
L 156.291228 279.69035 
L 164.652461 281.470247 
L 173.013694 283.229661 
L 181.374927 283.647287 
L 189.73616 282.981977 
L 198.097393 285.100523 
L 206.458626 284.944249 
L 214.819859 282.513143 
L 223.181092 284.958356 
L 231.542325 286.385292 
L 239.903558 287.975015 
L 248.264791 288.681268 
L 256.626024 288.762905 
L 264.987257 288.802365 
L 273.34849 289.727242 
L 281.709723 290.771716 
L 290.070956 292.852594 
L 298.432189 294.513751 
L 306.793422 295.792932 
L 315.154655 296.560696 
L 323.515888 297.291625 
L 331.877121 297.403265 
L 340.238354 298.330157 
L 348.599587 299.225592 
L 356.96082 300.218996 
L 365.322053 300.949033 
L 373.683286 301.615242 
L 382.044519 303.668344 
L 390.405752 304.918767 
L 398.766985 305.711662 
L 407.128218 306.823624 
L 415.489451 307.785457 
L 423.850684 309.373757 
L 432.211917 310.542276 
L 440.57315 311.603809 
L 448.934383 313.458992 
L 457.295617 314.435987 
L 465.65685 315.715869 
L 474.018083 318.911155 
L 482.379316 319.076437 
L 490.740549 319.404391 
L 499.101782 320.013669 
L 507.463015 322.570718 
L 515.824248 324.654073 
L 524.185481 327.574242 
L 532.546714 329.610854 
L 540.907947 332.797084 
L 549.26918 334.36092 
L 557.630413 336.055101 
L 565.991646 338.219394 
L 574.352879 340.859197 
L 582.714112 342.949839 
L 591.075345 344.216282 
L 599.436578 345.4567 
L 607.797811 347.086364 
L 616.159044 348.544405 
L 624.520277 350.542711 
L 632.88151 353.588232 
L 641.242743 356.073854 
L 649.603976 357.967226 
L 657.965209 359.98563 
" clip-path="url(#p4c8f98cefb)" style="fill: none; stroke: #1f77b4; stroke-width: 1.5; stroke-linecap: square"/>
   </g>
   <g id="line2d_62">
    <path d="M 89.401364 270.750247 
L 97.762597 270.42383 
L 106.12383 270.359361 
L 114.485063 270.465115 
L 122.846296 269.689407 
L 131.207529 269.801107 
L 139.568762 269.069011 
L 147.929995 267.886766 
L 156.291228 266.831388 
L 164.652461 265.185563 
L 173.013694 264.480872 
L 181.374927 263.773498 
L 189.73616 263.138906 
L 198.097393 261.309697 
L 206.458626 261.920739 
L 214.819859 262.226945 
L 223.181092 262.454789 
L 231.542325 262.690526 
L 239.903558 262.464932 
L 248.264791 262.274134 
L 256.626024 261.589586 
L 264.987257 261.360433 
L 273.34849 261.365536 
L 281.709723 262.834478 
L 290.070956 264.586162 
L 298.432189 266.345519 
L 306.793422 267.832091 
L 315.154655 268.932602 
L 323.515888 271.281124 
L 331.877121 272.369879 
L 340.238354 272.506254 
L 348.599587 272.321218 
L 356.96082 272.089805 
L 365.322053 272.556241 
L 373.683286 274.027919 
L 382.044519 275.016353 
L 390.405752 276.411387 
L 398.766985 277.630569 
L 407.128218 279.175445 
L 415.489451 280.388065 
L 423.850684 281.597401 
L 432.211917 283.251075 
L 440.57315 284.928434 
L 448.934383 286.473083 
L 457.295617 287.987494 
L 465.65685 288.150381 
L 474.018083 288.169791 
L 482.379316 288.493356 
L 490.740549 290.496308 
L 499.101782 289.664691 
L 507.463015 291.661203 
L 515.824248 290.6506 
L 524.185481 291.853355 
L 532.546714 293.371139 
L 540.907947 294.529844 
L 549.26918 298.004434 
L 557.630413 299.502077 
L 565.991646 301.951212 
L 574.352879 305.103783 
L 582.714112 307.633127 
L 591.075345 309.593201 
L 599.436578 310.02407 
L 607.797811 311.142297 
L 616.159044 312.958696 
L 624.520277 313.59652 
L 632.88151 315.612095 
L 641.242743 318.131781 
L 649.603976 321.112465 
L 657.965209 323.049522 
L 666.326442 325.463819 
L 674.687675 328.349999 
L 683.048908 332.349866 
L 691.410141 335.656789 
L 699.771374 339.144476 
L 708.132607 342.117263 
L 716.49384 345.438073 
L 724.855073 348.459781 
L 733.216306 351.705544 
L 741.577539 353.670742 
L 749.938772 356.075789 
L 758.300005 358.802078 
L 766.661238 360.765648 
L 775.022471 365.17539 
L 783.383704 366.854034 
L 791.744937 370.051327 
L 800.10617 372.858176 
" clip-path="url(#p4c8f98cefb)" style="fill: none; stroke: #ff7f0e; stroke-width: 1.5; stroke-linecap: square"/>
   </g>
   <g id="line2d_63">
    <path d="M 89.401364 270.750247 
L 97.762597 270.640611 
L 106.12383 270.608756 
L 114.485063 270.816436 
L 122.846296 270.546343 
L 131.207529 270.769185 
L 139.568762 270.891693 
L 147.929995 270.708897 
L 156.291228 271.10522 
L 164.652461 270.9427 
L 173.013694 270.566458 
L 181.374927 270.213757 
L 189.73616 270.326793 
L 198.097393 270.301519 
L 206.458626 269.620174 
L 214.819859 269.10247 
L 223.181092 267.125079 
L 231.542325 267.263553 
L 239.903558 267.840634 
L 248.264791 268.441035 
L 256.626024 268.994621 
L 264.987257 268.525231 
L 273.34849 268.861083 
L 281.709723 268.125381 
L 290.070956 267.26728 
L 298.432189 266.475519 
L 306.793422 265.895693 
L 315.154655 265.932266 
L 323.515888 266.45579 
L 331.877121 268.372283 
L 340.238354 269.438234 
L 348.599587 270.165972 
L 356.96082 271.116363 
L 365.322053 271.550556 
L 373.683286 272.121104 
L 382.044519 272.358808 
L 390.405752 272.722074 
L 398.766985 272.768673 
L 407.128218 273.480137 
L 415.489451 274.268627 
L 423.850684 275.565589 
L 432.211917 276.934193 
L 440.57315 278.304335 
L 448.934383 279.320082 
L 457.295617 280.930618 
L 465.65685 282.348569 
L 474.018083 283.228793 
L 482.379316 284.353293 
L 490.740549 284.692012 
L 499.101782 284.994597 
L 507.463015 285.886658 
L 515.824248 286.893628 
L 524.185481 288.360678 
L 532.546714 289.527413 
L 540.907947 291.585713 
L 549.26918 292.917689 
L 557.630413 294.046489 
L 565.991646 294.594622 
L 574.352879 296.935046 
L 582.714112 298.473737 
L 591.075345 300.267755 
L 599.436578 302.500487 
L 607.797811 305.171961 
L 616.159044 307.241347 
L 624.520277 309.927499 
L 632.88151 311.542427 
L 641.242743 313.461382 
L 649.603976 314.875439 
L 657.965209 317.407931 
L 666.326442 319.813099 
L 674.687675 322.479273 
L 683.048908 324.958864 
L 691.410141 327.041576 
L 699.771374 329.164279 
L 708.132607 331.70991 
L 716.49384 334.257841 
L 724.855073 337.298872 
L 733.216306 340.27216 
L 741.577539 343.16156 
L 749.938772 346.565732 
L 758.300005 350.134162 
L 766.661238 353.068715 
L 775.022471 355.860191 
L 783.383704 359.986315 
L 791.744937 361.170448 
L 800.10617 362.934274 
" clip-path="url(#p4c8f98cefb)" style="fill: none; stroke: #2ca02c; stroke-width: 1.5; stroke-linecap: square"/>
   </g>
   <g id="line2d_64">
    <path d="M 89.401364 270.750247 
L 97.762597 270.714475 
L 106.12383 270.976896 
L 114.485063 270.739235 
L 122.846296 271.069206 
L 131.207529 271.788735 
L 139.568762 272.773678 
L 147.929995 273.921468 
L 156.291228 275.512446 
L 164.652461 278.145142 
L 173.013694 280.179985 
L 181.374927 281.61149 
L 189.73616 282.250816 
L 198.097393 283.020086 
L 206.458626 283.552493 
L 214.819859 282.844855 
L 223.181092 284.300098 
L 231.542325 286.591462 
L 239.903558 288.036251 
L 248.264791 288.974159 
L 256.626024 290.138571 
L 264.987257 291.437743 
L 273.34849 292.68286 
L 281.709723 295.098087 
L 290.070956 296.644808 
L 298.432189 298.919318 
L 306.793422 300.762074 
L 315.154655 302.183825 
L 323.515888 303.934171 
L 331.877121 305.295809 
L 340.238354 306.220178 
L 348.599587 307.127914 
L 356.96082 308.008214 
L 365.322053 309.276329 
L 373.683286 311.174938 
L 382.044519 313.202484 
L 390.405752 316.07624 
L 398.766985 318.151334 
L 407.128218 319.756749 
L 415.489451 320.040398 
L 423.850684 322.087111 
L 432.211917 324.165743 
L 440.57315 326.179245 
L 448.934383 329.29793 
L 457.295617 332.178967 
L 465.65685 334.558132 
L 474.018083 336.947802 
L 482.379316 339.698569 
L 490.740549 342.767336 
L 499.101782 346.617956 
L 507.463015 348.537788 
L 515.824248 348.440604 
L 524.185481 349.972151 
L 532.546714 352.339708 
L 540.907947 354.275983 
L 549.26918 356.293386 
L 557.630413 359.308806 
L 565.991646 362.5619 
L 574.352879 365.227611 
L 582.714112 368.20126 
L 591.075345 371.186309 
L 599.436578 373.314563 
L 607.797811 376.468271 
L 616.159044 378.048077 
L 624.520277 380.820691 
L 632.88151 383.73456 
L 641.242743 386.795165 
L 649.603976 388.686698 
L 657.965209 390.444712 
L 666.326442 393.061619 
L 674.687675 395.884956 
L 683.048908 399.103577 
L 691.410141 402.178277 
L 699.771374 404.510528 
L 708.132607 406.742203 
L 716.49384 409.213166 
L 724.855073 411.632297 
L 733.216306 413.757016 
L 741.577539 416.283131 
L 749.938772 418.768522 
L 758.300005 420.986782 
L 766.661238 424.259303 
L 775.022471 427.8042 
L 783.383704 431.610795 
L 791.744937 434.999672 
L 800.10617 437.755217 
L 808.467403 439.785856 
L 816.828636 442.170303 
" clip-path="url(#p4c8f98cefb)" style="fill: none; stroke: #d62728; stroke-width: 1.5; stroke-linecap: square"/>
   </g>
   <g id="line2d_65">
    <path d="M 89.401364 270.750247 
L 97.762597 270.586522 
L 106.12383 270.699656 
L 114.485063 270.086516 
L 122.846296 269.901183 
L 131.207529 269.609718 
L 139.568762 270.199018 
L 147.929995 270.342371 
L 156.291228 269.446518 
L 164.652461 268.471392 
L 173.013694 267.692015 
L 181.374927 267.011288 
L 189.73616 267.092531 
L 198.097393 266.792399 
L 206.458626 265.625499 
L 214.819859 266.967849 
L 223.181092 267.686076 
L 231.542325 268.599903 
L 239.903558 269.655382 
L 248.264791 271.176078 
L 256.626024 271.527886 
L 264.987257 272.086013 
L 273.34849 272.467538 
L 281.709723 272.634699 
L 290.070956 272.905673 
L 298.432189 272.811257 
L 306.793422 273.235899 
L 315.154655 273.284348 
L 323.515888 273.118389 
L 331.877121 273.530792 
L 340.238354 274.273474 
L 348.599587 275.443505 
L 356.96082 276.819771 
L 365.322053 277.85218 
L 373.683286 278.761848 
L 382.044519 280.066507 
L 390.405752 281.140568 
L 398.766985 281.590343 
L 407.128218 282.640055 
L 415.489451 283.378288 
L 423.850684 284.414462 
L 432.211917 285.500506 
L 440.57315 287.046299 
L 448.934383 288.17818 
L 457.295617 289.262888 
L 465.65685 290.187182 
L 474.018083 291.107472 
L 482.379316 291.980632 
L 490.740549 293.000824 
L 499.101782 294.416147 
L 507.463015 295.401485 
L 515.824248 296.334367 
L 524.185481 296.492143 
L 532.546714 297.330953 
L 540.907947 298.81846 
L 549.26918 300.134945 
L 557.630413 301.868269 
L 565.991646 303.344328 
L 574.352879 305.048515 
L 582.714112 307.272078 
L 591.075345 309.313948 
L 599.436578 311.896812 
L 607.797811 314.141633 
L 616.159044 316.183261 
L 624.520277 317.304447 
L 632.88151 318.217097 
L 641.242743 319.978271 
L 649.603976 321.164236 
L 657.965209 322.281963 
L 666.326442 323.671241 
L 674.687675 325.089409 
L 683.048908 327.356237 
L 691.410141 329.560332 
L 699.771374 331.658576 
L 708.132607 334.352094 
L 716.49384 337.241831 
L 724.855073 340.122881 
L 733.216306 342.213285 
L 741.577539 344.828973 
L 749.938772 345.801972 
L 758.300005 347.052232 
L 766.661238 348.757751 
" clip-path="url(#p4c8f98cefb)" style="fill: none; stroke: #9467bd; stroke-width: 1.5; stroke-linecap: square"/>
   </g>
   <g id="line2d_66">
    <path d="M 89.401364 270.750247 
L 97.762597 270.821284 
L 106.12383 270.754912 
L 114.485063 270.448479 
L 122.846296 270.478857 
L 131.207529 270.516891 
L 139.568762 270.702623 
L 147.929995 272.06595 
L 156.291228 273.652135 
L 164.652461 275.212936 
L 173.013694 276.678082 
L 181.374927 278.446501 
L 189.73616 277.077286 
L 198.097393 279.705271 
L 206.458626 280.921099 
L 214.819859 280.98889 
L 223.181092 281.116546 
L 231.542325 282.716908 
L 239.903558 284.571025 
L 248.264791 286.004643 
L 256.626024 286.742596 
L 264.987257 287.820233 
L 273.34849 288.379953 
L 281.709723 288.826132 
L 290.070956 289.951446 
L 298.432189 291.194926 
L 306.793422 293.397799 
L 315.154655 294.942075 
L 323.515888 296.728313 
L 331.877121 297.731769 
L 340.238354 299.694329 
L 348.599587 300.992631 
L 356.96082 302.645908 
L 365.322053 304.060879 
L 373.683286 306.003315 
L 382.044519 309.152703 
L 390.405752 312.683881 
L 398.766985 314.121424 
L 407.128218 316.420697 
L 415.489451 318.966884 
L 423.850684 321.635938 
L 432.211917 323.732161 
L 440.57315 324.90501 
L 448.934383 326.022777 
L 457.295617 328.622494 
L 465.65685 331.388284 
L 474.018083 333.980416 
L 482.379316 336.118489 
L 490.740549 337.252455 
L 499.101782 339.388569 
L 507.463015 342.046903 
L 515.824248 347.271468 
L 524.185481 350.559144 
L 532.546714 351.13341 
L 540.907947 353.804927 
L 549.26918 356.12534 
L 557.630413 357.064663 
L 565.991646 359.734764 
L 574.352879 366.12576 
L 582.714112 366.185136 
L 591.075345 372.462572 
L 599.436578 374.26918 
L 607.797811 374.948742 
L 616.159044 377.828867 
L 624.520277 382.489007 
L 632.88151 384.118691 
L 641.242743 387.674233 
L 649.603976 389.957682 
L 657.965209 392.840545 
L 666.326442 396.252837 
L 674.687675 398.431167 
L 683.048908 401.775567 
L 691.410141 405.773833 
L 699.771374 409.417609 
L 708.132607 411.682359 
L 716.49384 414.218498 
L 724.855073 418.417576 
L 733.216306 419.949138 
L 741.577539 422.712479 
L 749.938772 425.817893 
" clip-path="url(#p4c8f98cefb)" style="fill: none; stroke: #8c564b; stroke-width: 1.5; stroke-linecap: square"/>
   </g>
   <g id="patch_9">
    <path d="M 53.03 451.213333 
L 53.03 252.266667 
" style="fill: none; stroke: #000000; stroke-width: 0.8; stroke-linejoin: miter; stroke-linecap: square"/>
   </g>
   <g id="patch_10">
    <path d="M 853.2 451.213333 
L 853.2 252.266667 
" style="fill: none; stroke: #000000; stroke-width: 0.8; stroke-linejoin: miter; stroke-linecap: square"/>
   </g>
   <g id="patch_11">
    <path d="M 53.03 451.213333 
L 853.2 451.213333 
" style="fill: none; stroke: #000000; stroke-width: 0.8; stroke-linejoin: miter; stroke-linecap: square"/>
   </g>
   <g id="patch_12">
    <path d="M 53.03 252.266667 
L 853.2 252.266667 
" style="fill: none; stroke: #000000; stroke-width: 0.8; stroke-linejoin: miter; stroke-linecap: square"/>
   </g>
  </g>
  <g id="axes_3">
   <g id="patch_13">
    <path d="M 53.03 678.04 
L 853.2 678.04 
L 853.2 479.093333 
L 53.03 479.093333 
z
" style="fill: #ffffff"/>
   </g>
   <g id="matplotlib.axis_5">
    <g id="xtick_11">
     <g id="line2d_67">
      <path d="M 89.401364 678.04 
L 89.401364 479.093333 
" clip-path="url(#pea41a0ec11)" style="fill: none; stroke: #b0b0b0; stroke-opacity: 0.3; stroke-width: 0.8; stroke-linecap: square"/>
     </g>
     <g id="line2d_68">
      <g>
       <use xlink:href="#mfd2383164f" x="89.401364" y="678.04" style="stroke: #000000; stroke-width: 0.8"/>
      </g>
     </g>
     <g id="text_34">
      <!-- 0.0 -->
      <g transform="translate(81.449801 692.638438)scale(0.1 -0.1)">
       <use xlink:href="#DejaVuSans-30"/>
       <use xlink:href="#DejaVuSans-2e" x="63.623047"/>
       <use xlink:href="#DejaVuSans-30" x="95.410156"/>
      </g>
     </g>
    </g>
    <g id="xtick_12">
     <g id="line2d_69">
      <path d="M 256.626024 678.04 
L 256.626024 479.093333 
" clip-path="url(#pea41a0ec11)" style="fill: none; stroke: #b0b0b0; stroke-opacity: 0.3; stroke-width: 0.8; stroke-linecap: square"/>
     </g>
     <g id="line2d_70">
      <g>
       <use xlink:href="#mfd2383164f" x="256.626024" y="678.04" style="stroke: #000000; stroke-width: 0.8"/>
      </g>
     </g>
     <g id="text_35">
      <!-- 0.2 -->
      <g transform="translate(248.674462 692.638438)scale(0.1 -0.1)">
       <use xlink:href="#DejaVuSans-30"/>
       <use xlink:href="#DejaVuSans-2e" x="63.623047"/>
       <use xlink:href="#DejaVuSans-32" x="95.410156"/>
      </g>
     </g>
    </g>
    <g id="xtick_13">
     <g id="line2d_71">
      <path d="M 423.850684 678.04 
L 423.850684 479.093333 
" clip-path="url(#pea41a0ec11)" style="fill: none; stroke: #b0b0b0; stroke-opacity: 0.3; stroke-width: 0.8; stroke-linecap: square"/>
     </g>
     <g id="line2d_72">
      <g>
       <use xlink:href="#mfd2383164f" x="423.850684" y="678.04" style="stroke: #000000; stroke-width: 0.8"/>
      </g>
     </g>
     <g id="text_36">
      <!-- 0.4 -->
      <g transform="translate(415.899122 692.638438)scale(0.1 -0.1)">
       <use xlink:href="#DejaVuSans-30"/>
       <use xlink:href="#DejaVuSans-2e" x="63.623047"/>
       <use xlink:href="#DejaVuSans-34" x="95.410156"/>
      </g>
     </g>
    </g>
    <g id="xtick_14">
     <g id="line2d_73">
      <path d="M 591.075345 678.04 
L 591.075345 479.093333 
" clip-path="url(#pea41a0ec11)" style="fill: none; stroke: #b0b0b0; stroke-opacity: 0.3; stroke-width: 0.8; stroke-linecap: square"/>
     </g>
     <g id="line2d_74">
      <g>
       <use xlink:href="#mfd2383164f" x="591.075345" y="678.04" style="stroke: #000000; stroke-width: 0.8"/>
      </g>
     </g>
     <g id="text_37">
      <!-- 0.6 -->
      <g transform="translate(583.123782 692.638438)scale(0.1 -0.1)">
       <use xlink:href="#DejaVuSans-30"/>
       <use xlink:href="#DejaVuSans-2e" x="63.623047"/>
       <use xlink:href="#DejaVuSans-36" x="95.410156"/>
      </g>
     </g>
    </g>
    <g id="xtick_15">
     <g id="line2d_75">
      <path d="M 758.300005 678.04 
L 758.300005 479.093333 
" clip-path="url(#pea41a0ec11)" style="fill: none; stroke: #b0b0b0; stroke-opacity: 0.3; stroke-width: 0.8; stroke-linecap: square"/>
     </g>
     <g id="line2d_76">
      <g>
       <use xlink:href="#mfd2383164f" x="758.300005" y="678.04" style="stroke: #000000; stroke-width: 0.8"/>
      </g>
     </g>
     <g id="text_38">
      <!-- 0.8 -->
      <g transform="translate(750.348443 692.638438)scale(0.1 -0.1)">
       <use xlink:href="#DejaVuSans-30"/>
       <use xlink:href="#DejaVuSans-2e" x="63.623047"/>
       <use xlink:href="#DejaVuSans-38" x="95.410156"/>
      </g>
     </g>
    </g>
    <g id="text_39">
     <!-- Time (s) -->
     <g transform="translate(432.786094 706.316563)scale(0.1 -0.1)">
      <use xlink:href="#DejaVuSans-54"/>
      <use xlink:href="#DejaVuSans-69" x="57.958984"/>
      <use xlink:href="#DejaVuSans-6d" x="85.742188"/>
      <use xlink:href="#DejaVuSans-65" x="183.154297"/>
      <use xlink:href="#DejaVuSans-20" x="244.677734"/>
      <use xlink:href="#DejaVuSans-28" x="276.464844"/>
      <use xlink:href="#DejaVuSans-73" x="315.478516"/>
      <use xlink:href="#DejaVuSans-29" x="367.578125"/>
     </g>
    </g>
   </g>
   <g id="matplotlib.axis_6">
    <g id="ytick_15">
     <g id="line2d_77">
      <path d="M 53.03 662.014423 
L 853.2 662.014423 
" clip-path="url(#pea41a0ec11)" style="fill: none; stroke: #b0b0b0; stroke-opacity: 0.3; stroke-width: 0.8; stroke-linecap: square"/>
     </g>
     <g id="line2d_78">
      <g>
       <use xlink:href="#mdcf0478247" x="53.03" y="662.014423" style="stroke: #000000; stroke-width: 0.8"/>
      </g>
     </g>
     <g id="text_40">
      <!-- −50 -->
      <g transform="translate(24.925313 665.813642)scale(0.1 -0.1)">
       <use xlink:href="#DejaVuSans-2212"/>
       <use xlink:href="#DejaVuSans-35" x="83.789062"/>
       <use xlink:href="#DejaVuSans-30" x="147.412109"/>
      </g>
     </g>
    </g>
    <g id="ytick_16">
     <g id="line2d_79">
      <path d="M 53.03 630.825136 
L 853.2 630.825136 
" clip-path="url(#pea41a0ec11)" style="fill: none; stroke: #b0b0b0; stroke-opacity: 0.3; stroke-width: 0.8; stroke-linecap: square"/>
     </g>
     <g id="line2d_80">
      <g>
       <use xlink:href="#mdcf0478247" x="53.03" y="630.825136" style="stroke: #000000; stroke-width: 0.8"/>
      </g>
     </g>
     <g id="text_41">
      <!-- −40 -->
      <g transform="translate(24.925313 634.624354)scale(0.1 -0.1)">
       <use xlink:href="#DejaVuSans-2212"/>
       <use xlink:href="#DejaVuSans-34" x="83.789062"/>
       <use xlink:href="#DejaVuSans-30" x="147.412109"/>
      </g>
     </g>
    </g>
    <g id="ytick_17">
     <g id="line2d_81">
      <path d="M 53.03 599.635848 
L 853.2 599.635848 
" clip-path="url(#pea41a0ec11)" style="fill: none; stroke: #b0b0b0; stroke-opacity: 0.3; stroke-width: 0.8; stroke-linecap: square"/>
     </g>
     <g id="line2d_82">
      <g>
       <use xlink:href="#mdcf0478247" x="53.03" y="599.635848" style="stroke: #000000; stroke-width: 0.8"/>
      </g>
     </g>
     <g id="text_42">
      <!-- −30 -->
      <g transform="translate(24.925313 603.435067)scale(0.1 -0.1)">
       <use xlink:href="#DejaVuSans-2212"/>
       <use xlink:href="#DejaVuSans-33" x="83.789062"/>
       <use xlink:href="#DejaVuSans-30" x="147.412109"/>
      </g>
     </g>
    </g>
    <g id="ytick_18">
     <g id="line2d_83">
      <path d="M 53.03 568.446561 
L 853.2 568.446561 
" clip-path="url(#pea41a0ec11)" style="fill: none; stroke: #b0b0b0; stroke-opacity: 0.3; stroke-width: 0.8; stroke-linecap: square"/>
     </g>
     <g id="line2d_84">
      <g>
       <use xlink:href="#mdcf0478247" x="53.03" y="568.446561" style="stroke: #000000; stroke-width: 0.8"/>
      </g>
     </g>
     <g id="text_43">
      <!-- −20 -->
      <g transform="translate(24.925313 572.24578)scale(0.1 -0.1)">
       <use xlink:href="#DejaVuSans-2212"/>
       <use xlink:href="#DejaVuSans-32" x="83.789062"/>
       <use xlink:href="#DejaVuSans-30" x="147.412109"/>
      </g>
     </g>
    </g>
    <g id="ytick_19">
     <g id="line2d_85">
      <path d="M 53.03 537.257274 
L 853.2 537.257274 
" clip-path="url(#pea41a0ec11)" style="fill: none; stroke: #b0b0b0; stroke-opacity: 0.3; stroke-width: 0.8; stroke-linecap: square"/>
     </g>
     <g id="line2d_86">
      <g>
       <use xlink:href="#mdcf0478247" x="53.03" y="537.257274" style="stroke: #000000; stroke-width: 0.8"/>
      </g>
     </g>
     <g id="text_44">
      <!-- −10 -->
      <g transform="translate(24.925313 541.056493)scale(0.1 -0.1)">
       <use xlink:href="#DejaVuSans-2212"/>
       <use xlink:href="#DejaVuSans-31" x="83.789062"/>
       <use xlink:href="#DejaVuSans-30" x="147.412109"/>
      </g>
     </g>
    </g>
    <g id="ytick_20">
     <g id="line2d_87">
      <path d="M 53.03 506.067987 
L 853.2 506.067987 
" clip-path="url(#pea41a0ec11)" style="fill: none; stroke: #b0b0b0; stroke-opacity: 0.3; stroke-width: 0.8; stroke-linecap: square"/>
     </g>
     <g id="line2d_88">
      <g>
       <use xlink:href="#mdcf0478247" x="53.03" y="506.067987" style="stroke: #000000; stroke-width: 0.8"/>
      </g>
     </g>
     <g id="text_45">
      <!-- 0 -->
      <g transform="translate(39.6675 509.867205)scale(0.1 -0.1)">
       <use xlink:href="#DejaVuSans-30"/>
      </g>
     </g>
    </g>
    <g id="text_46">
     <!-- Z Error (mm) -->
     <g transform="translate(18.845625 610.997135)rotate(-90)scale(0.1 -0.1)">
      <defs>
       <path id="DejaVuSans-5a" d="M 359 4666 
L 4025 4666 
L 4025 4184 
L 1075 531 
L 4097 531 
L 4097 0 
L 288 0 
L 288 481 
L 3238 4134 
L 359 4134 
L 359 4666 
z
" transform="scale(0.015625)"/>
      </defs>
      <use xlink:href="#DejaVuSans-5a"/>
      <use xlink:href="#DejaVuSans-20" x="68.505859"/>
      <use xlink:href="#DejaVuSans-45" x="100.292969"/>
      <use xlink:href="#DejaVuSans-72" x="163.476562"/>
      <use xlink:href="#DejaVuSans-72" x="202.839844"/>
      <use xlink:href="#DejaVuSans-6f" x="241.703125"/>
      <use xlink:href="#DejaVuSans-72" x="302.884766"/>
      <use xlink:href="#DejaVuSans-20" x="343.998047"/>
      <use xlink:href="#DejaVuSans-28" x="375.785156"/>
      <use xlink:href="#DejaVuSans-6d" x="414.798828"/>
      <use xlink:href="#DejaVuSans-6d" x="512.210938"/>
      <use xlink:href="#DejaVuSans-29" x="609.623047"/>
     </g>
    </g>
   </g>
   <g id="line2d_89">
    <path d="M 89.401364 506.067987 
L 97.762597 506.506858 
L 106.12383 507.854722 
L 114.485063 510.318192 
L 122.846296 513.476707 
L 131.207529 516.731724 
L 139.568762 518.988662 
L 147.929995 520.637415 
L 156.291228 521.783929 
L 164.652461 523.441624 
L 173.013694 525.432362 
L 181.374927 528.067544 
L 189.73616 532.035833 
L 198.097393 535.150108 
L 206.458626 537.041454 
L 214.819859 538.432449 
L 223.181092 539.671273 
L 231.542325 540.66932 
L 239.903558 542.678999 
L 248.264791 544.92528 
L 256.626024 546.851332 
L 264.987257 548.087556 
L 273.34849 549.480878 
L 281.709723 550.037394 
L 290.070956 551.25829 
L 298.432189 553.584284 
L 306.793422 556.208494 
L 315.154655 558.760659 
L 323.515888 560.870486 
L 331.877121 562.510736 
L 340.238354 563.841277 
L 348.599587 565.427405 
L 356.96082 567.241792 
L 365.322053 569.787298 
L 373.683286 572.75583 
L 382.044519 575.652132 
L 390.405752 577.887348 
L 398.766985 579.995409 
L 407.128218 582.073564 
L 415.489451 584.718062 
L 423.850684 587.77658 
L 432.211917 590.535355 
L 440.57315 593.185088 
L 448.934383 595.261472 
L 457.295617 597.267038 
L 465.65685 599.018126 
L 474.018083 601.828174 
L 482.379316 604.266695 
L 490.740549 606.867823 
L 499.101782 609.323418 
L 507.463015 611.949196 
L 515.824248 613.875757 
L 524.185481 616.261076 
L 532.546714 619.389903 
L 540.907947 622.67376 
L 549.26918 625.680192 
L 557.630413 628.943682 
L 565.991646 631.065052 
L 574.352879 633.20272 
L 582.714112 635.704256 
L 591.075345 638.387084 
L 599.436578 641.545899 
L 607.797811 645.363189 
L 616.159044 649.500653 
L 624.520277 653.043062 
L 632.88151 656.488136 
L 641.242743 660.355501 
L 649.603976 664.653351 
L 657.965209 668.99697 
" clip-path="url(#pea41a0ec11)" style="fill: none; stroke: #1f77b4; stroke-width: 1.5; stroke-linecap: square"/>
   </g>
   <g id="line2d_90">
    <path d="M 89.401364 506.067987 
L 97.762597 505.998994 
L 106.12383 506.258004 
L 114.485063 506.386223 
L 122.846296 506.667069 
L 131.207529 507.009602 
L 139.568762 507.229258 
L 147.929995 506.860713 
L 156.291228 506.436639 
L 164.652461 505.772302 
L 173.013694 505.119558 
L 181.374927 504.418311 
L 189.73616 504.232196 
L 198.097393 504.376247 
L 206.458626 504.852575 
L 214.819859 505.133018 
L 223.181092 505.157194 
L 231.542325 505.332502 
L 239.903558 505.598448 
L 248.264791 505.800908 
L 256.626024 505.848082 
L 264.987257 505.616987 
L 273.34849 505.327903 
L 281.709723 504.826444 
L 290.070956 504.394804 
L 298.432189 504.065652 
L 306.793422 503.871643 
L 315.154655 504.126125 
L 323.515888 504.768162 
L 331.877121 505.518481 
L 340.238354 506.284931 
L 348.599587 507.131299 
L 356.96082 507.903031 
L 365.322053 508.60151 
L 373.683286 509.290484 
L 382.044519 510.501529 
L 390.405752 510.239876 
L 398.766985 511.002002 
L 407.128218 511.572846 
L 415.489451 511.953717 
L 423.850684 512.364238 
L 432.211917 513.211154 
L 440.57315 514.183847 
L 448.934383 515.158819 
L 457.295617 516.355645 
L 465.65685 517.619615 
L 474.018083 518.172222 
L 482.379316 518.732031 
L 490.740549 519.86165 
L 499.101782 519.628842 
L 507.463015 520.90471 
L 515.824248 520.790023 
L 524.185481 521.407073 
L 532.546714 522.102347 
L 540.907947 522.409516 
L 549.26918 522.735597 
L 557.630413 522.73911 
L 565.991646 523.35738 
L 574.352879 523.874747 
L 582.714112 524.448897 
L 591.075345 524.925669 
L 599.436578 525.618788 
L 607.797811 525.999912 
L 616.159044 526.289289 
L 624.520277 527.26862 
L 632.88151 527.567592 
L 641.242743 527.749673 
L 649.603976 527.941725 
L 657.965209 527.989956 
L 666.326442 528.302025 
L 674.687675 528.287579 
L 683.048908 528.385558 
L 691.410141 528.473542 
L 699.771374 528.678669 
L 708.132607 528.972179 
L 716.49384 529.652844 
L 724.855073 530.333329 
L 733.216306 531.147379 
L 741.577539 531.361661 
L 749.938772 532.65691 
L 758.300005 532.353654 
L 766.661238 532.232546 
L 775.022471 531.747576 
L 783.383704 531.778139 
L 791.744937 531.469564 
L 800.10617 531.798047 
" clip-path="url(#pea41a0ec11)" style="fill: none; stroke: #ff7f0e; stroke-width: 1.5; stroke-linecap: square"/>
   </g>
   <g id="line2d_91">
    <path d="M 89.401364 506.067987 
L 97.762597 506.45516 
L 106.12383 506.684562 
L 114.485063 507.314275 
L 122.846296 508.51552 
L 131.207529 510.378326 
L 139.568762 512.237877 
L 147.929995 514.567703 
L 156.291228 516.160164 
L 164.652461 517.173647 
L 173.013694 517.579338 
L 181.374927 518.034522 
L 189.73616 518.135983 
L 198.097393 518.915148 
L 206.458626 520.186997 
L 214.819859 522.483798 
L 223.181092 524.840668 
L 231.542325 526.26147 
L 239.903558 527.340656 
L 248.264791 528.267152 
L 256.626024 528.917925 
L 264.987257 529.918475 
L 273.34849 531.208364 
L 281.709723 532.695539 
L 290.070956 534.537364 
L 298.432189 536.704058 
L 306.793422 538.853941 
L 315.154655 540.614135 
L 323.515888 541.830079 
L 331.877121 542.440775 
L 340.238354 542.884241 
L 348.599587 543.692059 
L 356.96082 544.584881 
L 365.322053 546.031892 
L 373.683286 547.628972 
L 382.044519 549.595778 
L 390.405752 551.559362 
L 398.766985 553.11558 
L 407.128218 554.26574 
L 415.489451 555.447793 
L 423.850684 556.538276 
L 432.211917 558.037501 
L 440.57315 559.853179 
L 448.934383 561.955391 
L 457.295617 564.158262 
L 465.65685 566.244722 
L 474.018083 568.247207 
L 482.379316 569.886268 
L 490.740549 571.444368 
L 499.101782 573.01672 
L 507.463015 574.667196 
L 515.824248 576.615672 
L 524.185481 578.645431 
L 532.546714 580.945274 
L 540.907947 583.516921 
L 549.26918 585.863121 
L 557.630413 587.892142 
L 565.991646 588.451873 
L 574.352879 590.756757 
L 582.714112 592.407225 
L 591.075345 594.185071 
L 599.436578 596.154793 
L 607.797811 598.256187 
L 616.159044 600.525795 
L 624.520277 602.345239 
L 632.88151 603.866573 
L 641.242743 604.942492 
L 649.603976 606.401971 
L 657.965209 607.845185 
L 666.326442 609.193615 
L 674.687675 611.011298 
L 683.048908 613.110667 
L 691.410141 615.082767 
L 699.771374 616.855543 
L 708.132607 618.266655 
L 716.49384 619.085234 
L 724.855073 619.931874 
L 733.216306 621.230743 
L 741.577539 623.250127 
L 749.938772 625.369483 
L 758.300005 627.38315 
L 766.661238 629.219649 
L 775.022471 630.76078 
L 783.383704 631.732462 
L 791.744937 632.340995 
L 800.10617 633.142065 
" clip-path="url(#pea41a0ec11)" style="fill: none; stroke: #2ca02c; stroke-width: 1.5; stroke-linecap: square"/>
   </g>
   <g id="line2d_92">
    <path d="M 89.401364 506.067987 
L 97.762597 506.116343 
L 106.12383 505.744467 
L 114.485063 505.45988 
L 122.846296 504.97156 
L 131.207529 504.437539 
L 139.568762 503.735093 
L 147.929995 503.27167 
L 156.291228 502.862072 
L 164.652461 502.632944 
L 173.013694 502.43018 
L 181.374927 502.286761 
L 189.73616 502.142051 
L 198.097393 502.184879 
L 206.458626 501.855484 
L 214.819859 501.560923 
L 223.181092 501.583447 
L 231.542325 501.830988 
L 239.903558 502.460943 
L 248.264791 503.256389 
L 256.626024 504.218679 
L 264.987257 505.099658 
L 273.34849 505.963349 
L 281.709723 506.623803 
L 290.070956 506.707829 
L 298.432189 506.653162 
L 306.793422 506.460891 
L 315.154655 506.662326 
L 323.515888 507.570453 
L 331.877121 508.687343 
L 340.238354 509.79577 
L 348.599587 510.86565 
L 356.96082 511.835711 
L 365.322053 512.208035 
L 373.683286 512.6699 
L 382.044519 513.222423 
L 390.405752 513.461263 
L 398.766985 513.980138 
L 407.128218 514.468283 
L 415.489451 516.08083 
L 423.850684 516.791608 
L 432.211917 517.537431 
L 440.57315 517.913978 
L 448.934383 518.265471 
L 457.295617 518.686624 
L 465.65685 518.929072 
L 474.018083 519.555371 
L 482.379316 520.285974 
L 490.740549 520.685388 
L 499.101782 520.973098 
L 507.463015 521.680487 
L 515.824248 522.216124 
L 524.185481 522.737431 
L 532.546714 523.277415 
L 540.907947 524.149417 
L 549.26918 524.887087 
L 557.630413 525.772666 
L 565.991646 526.870122 
L 574.352879 527.869199 
L 582.714112 528.833963 
L 591.075345 529.423069 
L 599.436578 529.794247 
L 607.797811 529.949334 
L 616.159044 530.326865 
L 624.520277 530.523313 
L 632.88151 530.821364 
L 641.242743 531.575492 
L 649.603976 532.566334 
L 657.965209 533.527794 
L 666.326442 534.480768 
L 674.687675 535.405654 
L 683.048908 536.13319 
L 691.410141 537.011908 
L 699.771374 537.620012 
L 708.132607 538.508863 
L 716.49384 539.415829 
L 724.855073 539.969165 
L 733.216306 539.872033 
L 741.577539 539.785151 
L 749.938772 539.205931 
L 758.300005 538.502075 
L 766.661238 538.612107 
L 775.022471 538.135369 
L 783.383704 538.010456 
L 791.744937 537.944037 
L 800.10617 538.06389 
L 808.467403 537.244037 
L 816.828636 537.227967 
" clip-path="url(#pea41a0ec11)" style="fill: none; stroke: #d62728; stroke-width: 1.5; stroke-linecap: square"/>
   </g>
   <g id="line2d_93">
    <path d="M 89.401364 506.067987 
L 97.762597 506.006307 
L 106.12383 506.036274 
L 114.485063 506.0915 
L 122.846296 506.021286 
L 131.207529 505.746584 
L 139.568762 505.646778 
L 147.929995 504.953441 
L 156.291228 504.223638 
L 164.652461 503.365649 
L 173.013694 502.318892 
L 181.374927 501.272254 
L 189.73616 500.196243 
L 198.097393 499.466783 
L 206.458626 499.054285 
L 214.819859 499.085057 
L 223.181092 498.593734 
L 231.542325 498.174366 
L 239.903558 497.73479 
L 248.264791 497.089223 
L 256.626024 496.457297 
L 264.987257 496.058638 
L 273.34849 495.645327 
L 281.709723 495.436845 
L 290.070956 495.247105 
L 298.432189 495.389057 
L 306.793422 495.427114 
L 315.154655 495.736622 
L 323.515888 496.069148 
L 331.877121 496.363404 
L 340.238354 496.620489 
L 348.599587 496.591996 
L 356.96082 496.123095 
L 365.322053 496.431293 
L 373.683286 496.613233 
L 382.044519 496.888383 
L 390.405752 497.133136 
L 398.766985 497.411028 
L 407.128218 497.723228 
L 415.489451 497.665451 
L 423.850684 497.644342 
L 432.211917 497.567526 
L 440.57315 497.405016 
L 448.934383 497.189211 
L 457.295617 497.046087 
L 465.65685 497.164007 
L 474.018083 497.481828 
L 482.379316 497.657713 
L 490.740549 497.880051 
L 499.101782 498.025345 
L 507.463015 498.001298 
L 515.824248 497.778305 
L 524.185481 497.763729 
L 532.546714 496.742753 
L 540.907947 496.245267 
L 549.26918 495.961046 
L 557.630413 496.234893 
L 565.991646 495.945767 
L 574.352879 495.647548 
L 582.714112 495.348355 
L 591.075345 495.062598 
L 599.436578 494.845288 
L 607.797811 494.614256 
L 616.159044 494.306099 
L 624.520277 493.891777 
L 632.88151 493.435871 
L 641.242743 493.333622 
L 649.603976 493.297279 
L 657.965209 493.341681 
L 666.326442 493.138636 
L 674.687675 492.7374 
L 683.048908 492.430556 
L 691.410141 491.98676 
L 699.771374 491.486616 
L 708.132607 491.038851 
L 716.49384 490.300002 
L 724.855073 489.712628 
L 733.216306 489.341952 
L 741.577539 488.439223 
L 749.938772 488.788374 
L 758.300005 488.555396 
L 766.661238 488.136364 
" clip-path="url(#pea41a0ec11)" style="fill: none; stroke: #9467bd; stroke-width: 1.5; stroke-linecap: square"/>
   </g>
   <g id="line2d_94">
    <path d="M 89.401364 506.067987 
L 97.762597 505.931596 
L 106.12383 505.927822 
L 114.485063 506.054051 
L 122.846296 505.783558 
L 131.207529 505.338056 
L 139.568762 504.502537 
L 147.929995 503.436193 
L 156.291228 502.454092 
L 164.652461 501.902419 
L 173.013694 501.908963 
L 181.374927 501.541008 
L 189.73616 500.739064 
L 198.097393 500.254494 
L 206.458626 499.934098 
L 214.819859 500.934558 
L 223.181092 501.979718 
L 231.542325 502.791409 
L 239.903558 503.184957 
L 248.264791 503.256325 
L 256.626024 503.350913 
L 264.987257 504.126062 
L 273.34849 505.303675 
L 281.709723 506.23082 
L 290.070956 506.566387 
L 298.432189 506.9985 
L 306.793422 507.466728 
L 315.154655 507.53636 
L 323.515888 508.269755 
L 331.877121 509.294559 
L 340.238354 510.300781 
L 348.599587 511.103177 
L 356.96082 511.641251 
L 365.322053 512.478279 
L 373.683286 512.774008 
L 382.044519 512.998125 
L 390.405752 513.651494 
L 398.766985 513.45718 
L 407.128218 514.101217 
L 415.489451 514.58735 
L 423.850684 515.104506 
L 432.211917 516.122303 
L 440.57315 517.64251 
L 448.934383 519.261423 
L 457.295617 520.138678 
L 465.65685 521.741905 
L 474.018083 523.324284 
L 482.379316 524.138986 
L 490.740549 525.216957 
L 499.101782 526.778211 
L 507.463015 528.512537 
L 515.824248 530.671672 
L 524.185481 531.199386 
L 532.546714 532.374444 
L 540.907947 533.481492 
L 549.26918 534.584971 
L 557.630413 535.406291 
L 565.991646 536.446652 
L 574.352879 537.521149 
L 582.714112 539.630123 
L 591.075345 540.093637 
L 599.436578 540.16166 
L 607.797811 542.144655 
L 616.159044 543.5188 
L 624.520277 545.097584 
L 632.88151 545.511303 
L 641.242743 547.632051 
L 649.603976 548.624341 
L 657.965209 549.988051 
L 666.326442 551.507708 
L 674.687675 552.562431 
L 683.048908 552.90567 
L 691.410141 554.00634 
L 699.771374 556.148221 
L 708.132607 557.569133 
L 716.49384 559.267202 
L 724.855073 561.404739 
L 733.216306 563.192854 
L 741.577539 564.388697 
L 749.938772 566.520962 
" clip-path="url(#pea41a0ec11)" style="fill: none; stroke: #8c564b; stroke-width: 1.5; stroke-linecap: square"/>
   </g>
   <g id="patch_14">
    <path d="M 53.03 678.04 
L 53.03 479.093333 
" style="fill: none; stroke: #000000; stroke-width: 0.8; stroke-linejoin: miter; stroke-linecap: square"/>
   </g>
   <g id="patch_15">
    <path d="M 853.2 678.04 
L 853.2 479.093333 
" style="fill: none; stroke: #000000; stroke-width: 0.8; stroke-linejoin: miter; stroke-linecap: square"/>
   </g>
   <g id="patch_16">
    <path d="M 53.03 678.04 
L 853.2 678.04 
" style="fill: none; stroke: #000000; stroke-width: 0.8; stroke-linejoin: miter; stroke-linecap: square"/>
   </g>
   <g id="patch_17">
    <path d="M 53.03 479.093333 
L 853.2 479.093333 
" style="fill: none; stroke: #000000; stroke-width: 0.8; stroke-linejoin: miter; stroke-linecap: square"/>
   </g>
  </g>
 </g>
 <defs>
  <clipPath id="pa0304b0ab7">
   <rect x="53.03" y="25.44" width="800.17" height="198.946667"/>
  </clipPath>
  <clipPath id="p4c8f98cefb">
   <rect x="53.03" y="252.266667" width="800.17" height="198.946667"/>
  </clipPath>
  <clipPath id="pea41a0ec11">
   <rect x="53.03" y="479.093333" width="800.17" height="198.946667"/>
  </clipPath>
 </defs>
</svg>
