<svg xmlns="http://www.w3.org/2000/svg" id="export" class="canvas" preserveAspectRatio="xMidYMid meet" style="" width="1217" height="137"><rect id="background" fill="#fff" pointer-events="all" style="" width="1217" height="137"/><g id="origin" transform="translate(6.2, 6.2) scale(1)"><g id="clusters" class="clusters"/><g id="edge-paths" class="edge-paths" style="pointer-events: none;"><defs><marker id="arrowhead" viewBox="0 0 10 10" refX="9" refY="5" markerUnits="strokeWidth" markerWidth="8" markerHeight="6" orient="auto" style="fill: rgb(0, 0, 0);"><path d="M 0 0 L 10 5 L 0 10 L 4 5 z" style="stroke-width: 1;"/></marker><marker id="arrowhead-select" viewBox="0 0 10 10" refX="9" refY="5" markerUnits="strokeWidth" markerWidth="8" markerHeight="6" orient="auto" style="fill: rgba(220, 0, 0, 0.9);"><path d="M 0 0 L 10 5 L 0 10 L 4 5 z" style="stroke-width: 1;"/></marker><marker id="arrowhead-hover" viewBox="0 0 10 10" refX="9" refY="5" markerUnits="strokeWidth" markerWidth="8" markerHeight="6" orient="auto" style="fill: rgba(220, 0, 0, 0.9);"><path d="M 0 0 L 10 5 L 0 10 L 4 5 z" style="stroke-width: 1;"/></marker></defs><path id="edge-obs" class="edge-path" d="M33.968902587890625,102L35.63556925455729,102C37.30223592122396,102,40.63556925455729,102,46.0455691019694,102C51.45556894938151,102,58.9422353108724,102,66.42890167236328,102C73.91556803385417,102,81.40223439534505,102,86.81223424275716,102C92.22223409016927,102,95.55556742350261,102,97.22223409016927,102L98.88890075683594,102" style="stroke: rgb(0, 0, 0); stroke-width: 1px; fill: none; marker-end: url(&quot;#arrowhead&quot;);"/><path id="edge-h_in" class="edge-path" d="M189.53070068359375,10L191.1973673502604,10C192.8640340169271,10,196.1973673502604,10,205.43491999308267,10C214.67247263590494,10,229.81424458821616,10,244.95601654052734,10C260.09778849283856,10,275.2395604451497,10,286.9145684173142,16C298.5895763894786,22,306.79782038149625,34,310.9019423775051,40L315.00606437351394,46" style="stroke: rgb(0, 0, 0); stroke-width: 1px; fill: none; marker-end: url(&quot;#arrowhead&quot;);"/><path id="edge-c_in" class="edge-path" d="M188.94770050048828,51L190.7115338643392,51C192.4753672281901,51,196.00303395589194,51,205.33775329589844,51C214.67247263590494,51,229.81424458821616,51,244.95601654052734,51C260.09778849283856,51,275.2395604451497,51,284.477113087972,51.26484508082269C293.71466573079425,51.529690161645384,297.0479990641276,52.05938032329075,298.71466573079425,52.32422540411344L300.38133239746094,52.58907048493613" style="stroke: rgb(0, 0, 0); stroke-width: 1px; fill: none; marker-end: url(&quot;#arrowhead&quot;);"/><path id="edge-/normalizer/Sub_output_0" class="edge-path" d="M133.0548095703125,102L134.72147623697916,102C136.38814290364584,102,139.72147623697916,102,143.37564086914062,102C147.0298055013021,102,151.00480143229166,102,152.99229939778647,102L154.97979736328125,102" style="stroke: rgb(0, 0, 0); stroke-width: 1px; fill: none; marker-end: url(&quot;#arrowhead&quot;);"/><path id="edge-/normalizer/Div_output_0" class="edge-path" d="M187.605712890625,102L189.59321085611978,102C191.5807088216146,102,195.55570475260416,102,199.20986938476562,102C202.8640340169271,102,206.1973673502604,102,207.8640340169271,102L209.53070068359375,102" style="stroke: rgb(0, 0, 0); stroke-width: 1px; fill: none; marker-end: url(&quot;#arrowhead&quot;);"/><path id="edge-/Unsqueeze_output_0" class="edge-path" d="M280.38133239746094,102L282.0479990641276,102C283.71466573079425,102,287.0479990641276,102,292.8187877268031,96C298.5895763894786,90,306.79782038149625,78,310.9019423775051,72L315.00606437351394,66" style="stroke: rgb(0, 0, 0); stroke-width: 1px; fill: none; marker-end: url(&quot;#arrowhead&quot;);"/><path id="edge-/rnn/LSTM_output_0" class="edge-path" d="M334.7808191746841,46L341.35588284088254,40.916666666666664C347.93094650708105,35.833333333333336,361.081073839478,25.666666666666668,372.80947053383403,20.583333333333332C384.5378672281901,15.5,394.8445332845052,15.5,399.9978663126628,15.5L405.1511993408203,15.5" style="stroke: rgb(0, 0, 0); stroke-width: 1px; fill: none; marker-end: url(&quot;#arrowhead&quot;);"/><path id="edge-h_out" class="edge-path" d="M343.3112030029297,55.795123006939214L348.4645360310872,55.745935839116015C353.6178690592448,55.6967486712928,363.9245351155599,55.598374335646405,375.2660280863444,55.5491871678232C386.6075210571289,55.5,398.9838409423828,55.5,405.17200088500977,55.5L411.3601608276367,55.5" style="stroke: rgb(0, 0, 0); stroke-width: 1px; fill: none; marker-end: url(&quot;#arrowhead&quot;);"/><path id="edge-c_out" class="edge-path" d="M334.7808191746841,66L341.35588284088254,71.08333333333333C347.93094650708105,76.16666666666667,361.081073839478,86.33333333333333,373.9414641454877,91.41666666666667C386.8018544514974,96.5,399.3725077311198,96.5,405.65783437093097,96.5L411.9431610107422,96.5" style="stroke: rgb(0, 0, 0); stroke-width: 1px; fill: none; marker-end: url(&quot;#arrowhead&quot;);"/><path id="edge-/rnn/Squeeze_output_0" class="edge-path" d="M463.06593322753906,15.5L464.73259989420575,15.5C466.3992665608724,15.5,469.73259989420575,15.5,473.06593322753906,15.5C476.3992665608724,15.5,479.73259989420575,15.5,481.3992665608724,15.5L483.06593322753906,15.5" style="stroke: rgb(0, 0, 0); stroke-width: 1px; fill: none; marker-end: url(&quot;#arrowhead&quot;);"/><path id="edge-/Squeeze_output_0" class="edge-path" d="M540.9806671142578,15.5L542.6473337809244,15.5C544.3140004475912,15.5,547.6473337809244,15.5,550.9806671142578,15.5C554.3140004475912,15.5,557.6473337809244,15.5,559.3140004475912,15.5L560.9806671142578,15.5" style="stroke: rgb(0, 0, 0); stroke-width: 1px; fill: none; marker-end: url(&quot;#arrowhead&quot;);"/><path id="edge-/actor/actor.0/Gemm_output_0" class="edge-path" d="M608.9925079345703,15.5L610.6591746012369,15.5C612.3258412679037,15.5,615.6591746012369,15.5,618.9925079345703,15.5C622.3258412679037,15.5,625.6591746012369,15.5,627.3258412679037,15.5L628.9925079345703,15.5" style="stroke: rgb(0, 0, 0); stroke-width: 1px; fill: none; marker-end: url(&quot;#arrowhead&quot;);"/><path id="edge-/actor/actor.1/Relu_output_0" class="edge-path" d="M667.0633850097656,15.5L668.7300516764323,15.5C670.396718343099,15.5,673.7300516764323,15.5,677.0633850097656,15.5C680.396718343099,15.5,683.7300516764323,15.5,685.396718343099,15.5L687.0633850097656,15.5" style="stroke: rgb(0, 0, 0); stroke-width: 1px; fill: none; marker-end: url(&quot;#arrowhead&quot;);"/><path id="edge-/actor/actor.2/Gemm_output_0" class="edge-path" d="M735.0752258300781,15.5L736.7418924967448,15.5C738.4085591634115,15.5,741.7418924967448,15.5,745.0752258300781,15.5C748.4085591634115,15.5,751.7418924967448,15.5,753.4085591634115,15.5L755.0752258300781,15.5" style="stroke: rgb(0, 0, 0); stroke-width: 1px; fill: none; marker-end: url(&quot;#arrowhead&quot;);"/><path id="edge-/actor/actor.1_1/Relu_output_0" class="edge-path" d="M793.1461029052734,15.5L794.8127695719401,15.5C796.4794362386068,15.5,799.8127695719401,15.5,803.1461029052734,15.5C806.4794362386068,15.5,809.8127695719401,15.5,811.4794362386068,15.5L813.1461029052734,15.5" style="stroke: rgb(0, 0, 0); stroke-width: 1px; fill: none; marker-end: url(&quot;#arrowhead&quot;);"/><path id="edge-/actor/actor.4/Gemm_output_0" class="edge-path" d="M861.1579437255859,15.5L862.8246103922526,15.5C864.4912770589193,15.5,867.8246103922526,15.5,871.1579437255859,15.5C874.4912770589193,15.5,877.8246103922526,15.5,879.4912770589193,15.5L881.1579437255859,15.5" style="stroke: rgb(0, 0, 0); stroke-width: 1px; fill: none; marker-end: url(&quot;#arrowhead&quot;);"/><path id="edge-/actor/actor.1_2/Relu_output_0" class="edge-path" d="M919.2288208007812,15.5L920.8954874674479,15.5C922.5621541341146,15.5,925.8954874674479,15.5,929.2288208007812,15.5C932.5621541341146,15.5,935.8954874674479,15.5,937.5621541341146,15.5L939.2288208007812,15.5" style="stroke: rgb(0, 0, 0); stroke-width: 1px; fill: none; marker-end: url(&quot;#arrowhead&quot;);"/><path id="edge-/actor/actor.6/Gemm_output_0" class="edge-path" d="M987.2406616210938,15.5L988.9073282877604,15.5C990.5739949544271,15.5,993.9073282877604,15.5,997.2406616210938,15.5C1000.5739949544271,15.5,1003.9073282877604,15.5,1005.5739949544271,15.5L1007.2406616210938,15.5" style="stroke: rgb(0, 0, 0); stroke-width: 1px; fill: none; marker-end: url(&quot;#arrowhead&quot;);"/><path id="edge-/actor/actor.1_3/Relu_output_0" class="edge-path" d="M1045.311538696289,15.5L1046.9782053629558,15.5C1048.6448720296223,15.5,1051.9782053629558,15.5,1055.311538696289,15.5C1058.6448720296223,15.5,1061.9782053629558,15.5,1063.6448720296223,15.5L1065.311538696289,15.5" style="stroke: rgb(0, 0, 0); stroke-width: 1px; fill: none; marker-end: url(&quot;#arrowhead&quot;);"/><path id="edge-actions" class="edge-path" d="M1113.3233795166016,15.5L1116.5967127482097,15.5C1119.8700459798176,15.5,1126.416712443034,15.5,1132.96337890625,15.5C1139.510045369466,15.5,1146.0567118326824,15.5,1149.3300450642903,15.5L1152.6033782958984,15.5" style="stroke: rgb(0, 0, 0); stroke-width: 1px; fill: none; marker-end: url(&quot;#arrowhead&quot;);"/></g><g id="edge-labels" class="edge-labels"><text class="edge-label" id="edge-label-edge-obs" transform="translate(53.968902587890625,112)" style="opacity: 1; font-family: -apple-system, BlinkMacSystemFont, &quot;Segoe WPC&quot;, &quot;Segoe UI&quot;, Ubuntu, &quot;Droid Sans&quot;, sans-serif, &quot;PingFang SC&quot;; font-size: 10px;"><tspan xml:space="preserve" dy="1em" x="1" style="">1×44</tspan></text><text class="edge-label" id="edge-label-edge-h_in" transform="translate(224.03601837158203,20)" style="opacity: 1; font-family: -apple-system, BlinkMacSystemFont, &quot;Segoe WPC&quot;, &quot;Segoe UI&quot;, Ubuntu, &quot;Droid Sans&quot;, sans-serif, &quot;PingFang SC&quot;; font-size: 10px;"><tspan xml:space="preserve" dy="1em" x="1">1×1×256</tspan></text><text class="edge-label" id="edge-label-edge-c_in" transform="translate(224.03601837158203,61)" style="opacity: 1; font-family: -apple-system, BlinkMacSystemFont, &quot;Segoe WPC&quot;, &quot;Segoe UI&quot;, Ubuntu, &quot;Droid Sans&quot;, sans-serif, &quot;PingFang SC&quot;; font-size: 10px;"><tspan xml:space="preserve" dy="1em" x="1">1×1×256</tspan></text><text class="edge-label" id="edge-label-edge-h_out" transform="translate(353.3112030029297,65.5)" style="opacity: 1; font-family: -apple-system, BlinkMacSystemFont, &quot;Segoe WPC&quot;, &quot;Segoe UI&quot;, Ubuntu, &quot;Droid Sans&quot;, sans-serif, &quot;PingFang SC&quot;; font-size: 10px;"><tspan xml:space="preserve" dy="1em" x="1">1×1×256</tspan></text><text class="edge-label" id="edge-label-edge-c_out" transform="translate(353.3112030029297,106.5)" style="opacity: 1; font-family: -apple-system, BlinkMacSystemFont, &quot;Segoe WPC&quot;, &quot;Segoe UI&quot;, Ubuntu, &quot;Droid Sans&quot;, sans-serif, &quot;PingFang SC&quot;; font-size: 10px;"><tspan xml:space="preserve" dy="1em" x="1">1×1×256</tspan></text><text class="edge-label" id="edge-label-edge-actions" transform="translate(1123.3233795166016,25.5)" style="opacity: 1; font-family: -apple-system, BlinkMacSystemFont, &quot;Segoe WPC&quot;, &quot;Segoe UI&quot;, Ubuntu, &quot;Droid Sans&quot;, sans-serif, &quot;PingFang SC&quot;; font-size: 10px;"><tspan xml:space="preserve" dy="1em" x="1">1×7</tspan></text></g><g id="nodes" class="nodes"><g id="input-name-obs" class="node graph-input" transform="translate(0,92)" style=""><g class="node-item graph-item-input" transform="translate(0,0)"><path d="M5,0h23.968902587890625a5,5 0 0 1 5,5v10a5,5 0 0 1 -5,5h-23.968902587890625a5,5 0 0 1 -5,-5v-10a5,5 0 0 1 5,-5z" style="stroke: rgb(0, 0, 0); fill: rgb(238, 238, 238); stroke-width: 0;"/><text x="6" y="13" style="font-family: -apple-system, BlinkMacSystemFont, &quot;Segoe WPC&quot;, &quot;Segoe UI&quot;, Ubuntu, &quot;Droid Sans&quot;, sans-serif, &quot;PingFang SC&quot;; font-size: 11px; text-rendering: geometricprecision; user-select: none;">obs</text><title>float32[1,44]</title></g><path class="node node-border" d="M5,0h23.968902587890625a5,5 0 0 1 5,5v10a5,5 0 0 1 -5,5h-23.968902587890625a5,5 0 0 1 -5,-5v-10a5,5 0 0 1 5,-5z" style="stroke: rgb(51, 51, 51); fill: none; stroke-width: 1px;"/></g><g id="input-name-h_in" class="node graph-input" transform="translate(153.0548095703125,0)" style=""><g class="node-item graph-item-input" transform="translate(0,0)"><path d="M5,0h26.47589111328125a5,5 0 0 1 5,5v10a5,5 0 0 1 -5,5h-26.47589111328125a5,5 0 0 1 -5,-5v-10a5,5 0 0 1 5,-5z" style="stroke: rgb(0, 0, 0); fill: rgb(238, 238, 238); stroke-width: 0;"/><text x="6" y="13" style="font-family: -apple-system, BlinkMacSystemFont, &quot;Segoe WPC&quot;, &quot;Segoe UI&quot;, Ubuntu, &quot;Droid Sans&quot;, sans-serif, &quot;PingFang SC&quot;; font-size: 11px; text-rendering: geometricprecision; user-select: none;">h_in</text><title>float32[1,1,256]</title></g><path class="node node-border" d="M5,0h26.47589111328125a5,5 0 0 1 5,5v10a5,5 0 0 1 -5,5h-26.47589111328125a5,5 0 0 1 -5,-5v-10a5,5 0 0 1 5,-5z" style="stroke: rgb(51, 51, 51); fill: none; stroke-width: 1px;"/></g><g id="input-name-c_in" class="node graph-input" transform="translate(153.63780975341797,41)" style=""><g class="node-item graph-item-input" transform="translate(0,0)"><path d="M5,0h25.309890747070312a5,5 0 0 1 5,5v10a5,5 0 0 1 -5,5h-25.309890747070312a5,5 0 0 1 -5,-5v-10a5,5 0 0 1 5,-5z" style="stroke: rgb(0, 0, 0); fill: rgb(238, 238, 238); stroke-width: 0;"/><text x="6" y="13" style="font-family: -apple-system, BlinkMacSystemFont, &quot;Segoe WPC&quot;, &quot;Segoe UI&quot;, Ubuntu, &quot;Droid Sans&quot;, sans-serif, &quot;PingFang SC&quot;; font-size: 11px; text-rendering: geometricprecision; user-select: none;">c_in</text><title>float32[1,1,256]</title></g><path class="node node-border" d="M5,0h25.309890747070312a5,5 0 0 1 5,5v10a5,5 0 0 1 -5,5h-25.309890747070312a5,5 0 0 1 -5,-5v-10a5,5 0 0 1 5,-5z" style="stroke: rgb(51, 51, 51); fill: none; stroke-width: 1px;"/></g><g id="node-name-/normalizer/Sub" class="node graph-node" transform="translate(98.88890075683594,92)" style=""><g class="node-item node-item-type" transform="translate(0,0)"><path d="M5,0h24.165908813476562a5,5 0 0 1 5,5v10a5,5 0 0 1 -5,5h-24.165908813476562a5,5 0 0 1 -5,-5v-10a5,5 0 0 1 5,-5z" style="stroke: rgb(0, 0, 0); fill: rgb(0, 0, 0); stroke-width: 0;"/><text x="6" y="13" style="font-family: -apple-system, BlinkMacSystemFont, &quot;Segoe WPC&quot;, &quot;Segoe UI&quot;, Ubuntu, &quot;Droid Sans&quot;, sans-serif, &quot;PingFang SC&quot;; font-size: 11px; text-rendering: geometricprecision; user-select: none; fill: rgb(255, 255, 255);">Sub</text><title>/normalizer/Sub</title></g><path class="node node-border" d="M5,0h24.165908813476562a5,5 0 0 1 5,5v10a5,5 0 0 1 -5,5h-24.165908813476562a5,5 0 0 1 -5,-5v-10a5,5 0 0 1 5,-5z" style="stroke: rgb(51, 51, 51); fill: none; stroke-width: 1px;"/></g><g id="node-name-/normalizer/Div" class="node graph-node" transform="translate(154.97979736328125,92)" style=""><g class="node-item node-item-type" transform="translate(0,0)"><path d="M5,0h22.62591552734375a5,5 0 0 1 5,5v10a5,5 0 0 1 -5,5h-22.62591552734375a5,5 0 0 1 -5,-5v-10a5,5 0 0 1 5,-5z" style="stroke: rgb(0, 0, 0); fill: rgb(0, 0, 0); stroke-width: 0;"/><text x="6" y="13" style="font-family: -apple-system, BlinkMacSystemFont, &quot;Segoe WPC&quot;, &quot;Segoe UI&quot;, Ubuntu, &quot;Droid Sans&quot;, sans-serif, &quot;PingFang SC&quot;; font-size: 11px; text-rendering: geometricprecision; user-select: none; fill: rgb(255, 255, 255);">Div</text><title>/normalizer/Div</title></g><path class="node node-border" d="M5,0h22.62591552734375a5,5 0 0 1 5,5v10a5,5 0 0 1 -5,5h-22.62591552734375a5,5 0 0 1 -5,-5v-10a5,5 0 0 1 5,-5z" style="stroke: rgb(51, 51, 51); fill: none; stroke-width: 1px;"/></g><g id="node-name-/Unsqueeze" class="node graph-node" transform="translate(209.53070068359375,92)" style=""><g class="node-item node-item-type node-item-type-transform" transform="translate(0,0)"><path d="M5,0h60.85063171386719a5,5 0 0 1 5,5v10a5,5 0 0 1 -5,5h-60.85063171386719a5,5 0 0 1 -5,-5v-10a5,5 0 0 1 5,-5z" style="stroke: rgb(0, 0, 0); fill: rgb(51, 85, 68); stroke-width: 0;"/><text x="6" y="13" style="font-family: -apple-system, BlinkMacSystemFont, &quot;Segoe WPC&quot;, &quot;Segoe UI&quot;, Ubuntu, &quot;Droid Sans&quot;, sans-serif, &quot;PingFang SC&quot;; font-size: 11px; text-rendering: geometricprecision; user-select: none; fill: rgb(255, 255, 255);">Unsqueeze</text><title>/Unsqueeze</title></g><path class="node node-border" d="M5,0h60.85063171386719a5,5 0 0 1 5,5v10a5,5 0 0 1 -5,5h-60.85063171386719a5,5 0 0 1 -5,-5v-10a5,5 0 0 1 5,-5z" style="stroke: rgb(51, 51, 51); fill: none; stroke-width: 1px;"/></g><g id="node-name-/rnn/LSTM" class="node graph-node" transform="translate(300.38133239746094,46)" style=""><g class="node-item node-item-type node-item-type-layer" transform="translate(0,0)"><path d="M5,0h32.92987060546875a5,5 0 0 1 5,5v10a5,5 0 0 1 -5,5h-32.92987060546875a5,5 0 0 1 -5,-5v-10a5,5 0 0 1 5,-5z" style="stroke: rgb(0, 0, 0); fill: rgb(51, 85, 136); stroke-width: 0;"/><text x="6" y="13" style="font-family: -apple-system, BlinkMacSystemFont, &quot;Segoe WPC&quot;, &quot;Segoe UI&quot;, Ubuntu, &quot;Droid Sans&quot;, sans-serif, &quot;PingFang SC&quot;; font-size: 11px; text-rendering: geometricprecision; user-select: none; fill: rgb(255, 255, 255);">LSTM</text><title>/rnn/LSTM</title></g><path class="node node-border" d="M5,0h32.92987060546875a5,5 0 0 1 5,5v10a5,5 0 0 1 -5,5h-32.92987060546875a5,5 0 0 1 -5,-5v-10a5,5 0 0 1 5,-5z" style="stroke: rgb(51, 51, 51); fill: none; stroke-width: 1px;"/></g><g id="node-name-/rnn/Squeeze" class="node graph-node" transform="translate(405.1511993408203,5.5)" style=""><g class="node-item node-item-type node-item-type-transform" transform="translate(0,0)"><path d="M5,0h47.91473388671875a5,5 0 0 1 5,5v10a5,5 0 0 1 -5,5h-47.91473388671875a5,5 0 0 1 -5,-5v-10a5,5 0 0 1 5,-5z" style="stroke: rgb(0, 0, 0); fill: rgb(51, 85, 68); stroke-width: 0;"/><text x="6" y="13" style="font-family: -apple-system, BlinkMacSystemFont, &quot;Segoe WPC&quot;, &quot;Segoe UI&quot;, Ubuntu, &quot;Droid Sans&quot;, sans-serif, &quot;PingFang SC&quot;; font-size: 11px; text-rendering: geometricprecision; user-select: none; fill: rgb(255, 255, 255);">Squeeze</text><title>/rnn/Squeeze</title></g><path class="node node-border" d="M5,0h47.91473388671875a5,5 0 0 1 5,5v10a5,5 0 0 1 -5,5h-47.91473388671875a5,5 0 0 1 -5,-5v-10a5,5 0 0 1 5,-5z" style="stroke: rgb(51, 51, 51); fill: none; stroke-width: 1px;"/></g><g id="node-name-/Squeeze" class="node graph-node" transform="translate(483.06593322753906,5.5)" style=""><g class="node-item node-item-type node-item-type-transform" transform="translate(0,0)"><path d="M5,0h47.91473388671875a5,5 0 0 1 5,5v10a5,5 0 0 1 -5,5h-47.91473388671875a5,5 0 0 1 -5,-5v-10a5,5 0 0 1 5,-5z" style="stroke: rgb(0, 0, 0); fill: rgb(51, 85, 68); stroke-width: 0;"/><text x="6" y="13" style="font-family: -apple-system, BlinkMacSystemFont, &quot;Segoe WPC&quot;, &quot;Segoe UI&quot;, Ubuntu, &quot;Droid Sans&quot;, sans-serif, &quot;PingFang SC&quot;; font-size: 11px; text-rendering: geometricprecision; user-select: none; fill: rgb(255, 255, 255);">Squeeze</text><title>/Squeeze</title></g><path class="node node-border" d="M5,0h47.91473388671875a5,5 0 0 1 5,5v10a5,5 0 0 1 -5,5h-47.91473388671875a5,5 0 0 1 -5,-5v-10a5,5 0 0 1 5,-5z" style="stroke: rgb(51, 51, 51); fill: none; stroke-width: 1px;"/></g><g id="node-name-/actor/actor.0/Gemm" class="node graph-node" transform="translate(560.9806671142578,5.5)" style=""><g class="node-item node-item-type node-item-type-layer" transform="translate(0,0)"><path d="M5,0h38.0118408203125a5,5 0 0 1 5,5v10a5,5 0 0 1 -5,5h-38.0118408203125a5,5 0 0 1 -5,-5v-10a5,5 0 0 1 5,-5z" style="stroke: rgb(0, 0, 0); fill: rgb(51, 85, 136); stroke-width: 0;"/><text x="6" y="13" style="font-family: -apple-system, BlinkMacSystemFont, &quot;Segoe WPC&quot;, &quot;Segoe UI&quot;, Ubuntu, &quot;Droid Sans&quot;, sans-serif, &quot;PingFang SC&quot;; font-size: 11px; text-rendering: geometricprecision; user-select: none; fill: rgb(255, 255, 255);">Gemm</text><title>/actor/actor.0/Gemm</title></g><path class="node node-border" d="M5,0h38.0118408203125a5,5 0 0 1 5,5v10a5,5 0 0 1 -5,5h-38.0118408203125a5,5 0 0 1 -5,-5v-10a5,5 0 0 1 5,-5z" style="stroke: rgb(51, 51, 51); fill: none; stroke-width: 1px;"/></g><g id="node-name-/actor/actor.1/Relu" class="node graph-node" transform="translate(628.9925079345703,5.5)" style=""><g class="node-item node-item-type node-item-type-activation" transform="translate(0,0)"><path d="M5,0h28.070877075195312a5,5 0 0 1 5,5v10a5,5 0 0 1 -5,5h-28.070877075195312a5,5 0 0 1 -5,-5v-10a5,5 0 0 1 5,-5z" style="stroke: rgb(0, 0, 0); fill: rgb(112, 41, 33); stroke-width: 0;"/><text x="6" y="13" style="font-family: -apple-system, BlinkMacSystemFont, &quot;Segoe WPC&quot;, &quot;Segoe UI&quot;, Ubuntu, &quot;Droid Sans&quot;, sans-serif, &quot;PingFang SC&quot;; font-size: 11px; text-rendering: geometricprecision; user-select: none; fill: rgb(255, 255, 255);">Relu</text><title>/actor/actor.1/Relu</title></g><path class="node node-border" d="M5,0h28.070877075195312a5,5 0 0 1 5,5v10a5,5 0 0 1 -5,5h-28.070877075195312a5,5 0 0 1 -5,-5v-10a5,5 0 0 1 5,-5z" style="stroke: rgb(51, 51, 51); fill: none; stroke-width: 1px;"/></g><g id="node-name-/actor/actor.2/Gemm" class="node graph-node" transform="translate(687.0633850097656,5.5)" style=""><g class="node-item node-item-type node-item-type-layer" transform="translate(0,0)"><path d="M5,0h38.0118408203125a5,5 0 0 1 5,5v10a5,5 0 0 1 -5,5h-38.0118408203125a5,5 0 0 1 -5,-5v-10a5,5 0 0 1 5,-5z" style="stroke: rgb(0, 0, 0); fill: rgb(51, 85, 136); stroke-width: 0;"/><text x="6" y="13" style="font-family: -apple-system, BlinkMacSystemFont, &quot;Segoe WPC&quot;, &quot;Segoe UI&quot;, Ubuntu, &quot;Droid Sans&quot;, sans-serif, &quot;PingFang SC&quot;; font-size: 11px; text-rendering: geometricprecision; user-select: none; fill: rgb(255, 255, 255);">Gemm</text><title>/actor/actor.2/Gemm</title></g><path class="node node-border" d="M5,0h38.0118408203125a5,5 0 0 1 5,5v10a5,5 0 0 1 -5,5h-38.0118408203125a5,5 0 0 1 -5,-5v-10a5,5 0 0 1 5,-5z" style="stroke: rgb(51, 51, 51); fill: none; stroke-width: 1px;"/></g><g id="node-name-/actor/actor.1_1/Relu" class="node graph-node" transform="translate(755.0752258300781,5.5)" style=""><g class="node-item node-item-type node-item-type-activation" transform="translate(0,0)"><path d="M5,0h28.070877075195312a5,5 0 0 1 5,5v10a5,5 0 0 1 -5,5h-28.070877075195312a5,5 0 0 1 -5,-5v-10a5,5 0 0 1 5,-5z" style="stroke: rgb(0, 0, 0); fill: rgb(112, 41, 33); stroke-width: 0;"/><text x="6" y="13" style="font-family: -apple-system, BlinkMacSystemFont, &quot;Segoe WPC&quot;, &quot;Segoe UI&quot;, Ubuntu, &quot;Droid Sans&quot;, sans-serif, &quot;PingFang SC&quot;; font-size: 11px; text-rendering: geometricprecision; user-select: none; fill: rgb(255, 255, 255);">Relu</text><title>/actor/actor.1_1/Relu</title></g><path class="node node-border" d="M5,0h28.070877075195312a5,5 0 0 1 5,5v10a5,5 0 0 1 -5,5h-28.070877075195312a5,5 0 0 1 -5,-5v-10a5,5 0 0 1 5,-5z" style="stroke: rgb(51, 51, 51); fill: none; stroke-width: 1px;"/></g><g id="node-name-/actor/actor.4/Gemm" class="node graph-node" transform="translate(813.1461029052734,5.5)" style=""><g class="node-item node-item-type node-item-type-layer" transform="translate(0,0)"><path d="M5,0h38.0118408203125a5,5 0 0 1 5,5v10a5,5 0 0 1 -5,5h-38.0118408203125a5,5 0 0 1 -5,-5v-10a5,5 0 0 1 5,-5z" style="stroke: rgb(0, 0, 0); fill: rgb(51, 85, 136); stroke-width: 0;"/><text x="6" y="13" style="font-family: -apple-system, BlinkMacSystemFont, &quot;Segoe WPC&quot;, &quot;Segoe UI&quot;, Ubuntu, &quot;Droid Sans&quot;, sans-serif, &quot;PingFang SC&quot;; font-size: 11px; text-rendering: geometricprecision; user-select: none; fill: rgb(255, 255, 255);">Gemm</text><title>/actor/actor.4/Gemm</title></g><path class="node node-border" d="M5,0h38.0118408203125a5,5 0 0 1 5,5v10a5,5 0 0 1 -5,5h-38.0118408203125a5,5 0 0 1 -5,-5v-10a5,5 0 0 1 5,-5z" style="stroke: rgb(51, 51, 51); fill: none; stroke-width: 1px;"/></g><g id="node-name-/actor/actor.1_2/Relu" class="node graph-node" transform="translate(881.1579437255859,5.5)" style=""><g class="node-item node-item-type node-item-type-activation" transform="translate(0,0)"><path d="M5,0h28.070877075195312a5,5 0 0 1 5,5v10a5,5 0 0 1 -5,5h-28.070877075195312a5,5 0 0 1 -5,-5v-10a5,5 0 0 1 5,-5z" style="stroke: rgb(0, 0, 0); fill: rgb(112, 41, 33); stroke-width: 0;"/><text x="6" y="13" style="font-family: -apple-system, BlinkMacSystemFont, &quot;Segoe WPC&quot;, &quot;Segoe UI&quot;, Ubuntu, &quot;Droid Sans&quot;, sans-serif, &quot;PingFang SC&quot;; font-size: 11px; text-rendering: geometricprecision; user-select: none; fill: rgb(255, 255, 255);">Relu</text><title>/actor/actor.1_2/Relu</title></g><path class="node node-border" d="M5,0h28.070877075195312a5,5 0 0 1 5,5v10a5,5 0 0 1 -5,5h-28.070877075195312a5,5 0 0 1 -5,-5v-10a5,5 0 0 1 5,-5z" style="stroke: rgb(51, 51, 51); fill: none; stroke-width: 1px;"/></g><g id="node-name-/actor/actor.6/Gemm" class="node graph-node" transform="translate(939.2288208007812,5.5)" style=""><g class="node-item node-item-type node-item-type-layer" transform="translate(0,0)"><path d="M5,0h38.0118408203125a5,5 0 0 1 5,5v10a5,5 0 0 1 -5,5h-38.0118408203125a5,5 0 0 1 -5,-5v-10a5,5 0 0 1 5,-5z" style="stroke: rgb(0, 0, 0); fill: rgb(51, 85, 136); stroke-width: 0;"/><text x="6" y="13" style="font-family: -apple-system, BlinkMacSystemFont, &quot;Segoe WPC&quot;, &quot;Segoe UI&quot;, Ubuntu, &quot;Droid Sans&quot;, sans-serif, &quot;PingFang SC&quot;; font-size: 11px; text-rendering: geometricprecision; user-select: none; fill: rgb(255, 255, 255);">Gemm</text><title>/actor/actor.6/Gemm</title></g><path class="node node-border" d="M5,0h38.0118408203125a5,5 0 0 1 5,5v10a5,5 0 0 1 -5,5h-38.0118408203125a5,5 0 0 1 -5,-5v-10a5,5 0 0 1 5,-5z" style="stroke: rgb(51, 51, 51); fill: none; stroke-width: 1px;"/></g><g id="node-name-/actor/actor.1_3/Relu" class="node graph-node" transform="translate(1007.2406616210938,5.5)" style=""><g class="node-item node-item-type node-item-type-activation" transform="translate(0,0)"><path d="M5,0h28.070877075195312a5,5 0 0 1 5,5v10a5,5 0 0 1 -5,5h-28.070877075195312a5,5 0 0 1 -5,-5v-10a5,5 0 0 1 5,-5z" style="stroke: rgb(0, 0, 0); fill: rgb(112, 41, 33); stroke-width: 0;"/><text x="6" y="13" style="font-family: -apple-system, BlinkMacSystemFont, &quot;Segoe WPC&quot;, &quot;Segoe UI&quot;, Ubuntu, &quot;Droid Sans&quot;, sans-serif, &quot;PingFang SC&quot;; font-size: 11px; text-rendering: geometricprecision; user-select: none; fill: rgb(255, 255, 255);">Relu</text><title>/actor/actor.1_3/Relu</title></g><path class="node node-border" d="M5,0h28.070877075195312a5,5 0 0 1 5,5v10a5,5 0 0 1 -5,5h-28.070877075195312a5,5 0 0 1 -5,-5v-10a5,5 0 0 1 5,-5z" style="stroke: rgb(51, 51, 51); fill: none; stroke-width: 1px;"/></g><g id="node-name-/actor/actor.8/Gemm" class="node graph-node" transform="translate(1065.311538696289,5.5)" style=""><g class="node-item node-item-type node-item-type-layer" transform="translate(0,0)"><path d="M5,0h38.0118408203125a5,5 0 0 1 5,5v10a5,5 0 0 1 -5,5h-38.0118408203125a5,5 0 0 1 -5,-5v-10a5,5 0 0 1 5,-5z" style="stroke: rgb(0, 0, 0); fill: rgb(51, 85, 136); stroke-width: 0;"/><text x="6" y="13" style="font-family: -apple-system, BlinkMacSystemFont, &quot;Segoe WPC&quot;, &quot;Segoe UI&quot;, Ubuntu, &quot;Droid Sans&quot;, sans-serif, &quot;PingFang SC&quot;; font-size: 11px; text-rendering: geometricprecision; user-select: none; fill: rgb(255, 255, 255);">Gemm</text><title>/actor/actor.8/Gemm</title></g><path class="node node-border" d="M5,0h38.0118408203125a5,5 0 0 1 5,5v10a5,5 0 0 1 -5,5h-38.0118408203125a5,5 0 0 1 -5,-5v-10a5,5 0 0 1 5,-5z" style="stroke: rgb(51, 51, 51); fill: none; stroke-width: 1px;"/></g><g class="node" transform="translate(1152.6033782958984,5.5)" style=""><g class="node-item graph-item-output" transform="translate(0,0)"><path d="M5,0h41.865753173828125a5,5 0 0 1 5,5v10a5,5 0 0 1 -5,5h-41.865753173828125a5,5 0 0 1 -5,-5v-10a5,5 0 0 1 5,-5z" style="stroke: rgb(0, 0, 0); fill: rgb(238, 238, 238); stroke-width: 0;"/><text x="6" y="13" style="font-family: -apple-system, BlinkMacSystemFont, &quot;Segoe WPC&quot;, &quot;Segoe UI&quot;, Ubuntu, &quot;Droid Sans&quot;, sans-serif, &quot;PingFang SC&quot;; font-size: 11px; text-rendering: geometricprecision; user-select: none;">actions</text><title>float32[1,7]</title></g><path class="node node-border" d="M5,0h41.865753173828125a5,5 0 0 1 5,5v10a5,5 0 0 1 -5,5h-41.865753173828125a5,5 0 0 1 -5,-5v-10a5,5 0 0 1 5,-5z" style="stroke: rgb(51, 51, 51); fill: none; stroke-width: 1px;"/></g><g class="node" transform="translate(411.3601608276367,45.5)" style=""><g class="node-item graph-item-output" transform="translate(0,0)"><path d="M5,0h35.49681091308594a5,5 0 0 1 5,5v10a5,5 0 0 1 -5,5h-35.49681091308594a5,5 0 0 1 -5,-5v-10a5,5 0 0 1 5,-5z" style="stroke: rgb(0, 0, 0); fill: rgb(238, 238, 238); stroke-width: 0;"/><text x="6" y="13" style="font-family: -apple-system, BlinkMacSystemFont, &quot;Segoe WPC&quot;, &quot;Segoe UI&quot;, Ubuntu, &quot;Droid Sans&quot;, sans-serif, &quot;PingFang SC&quot;; font-size: 11px; text-rendering: geometricprecision; user-select: none;">h_out</text><title>float32[1,1,256]</title></g><path class="node node-border" d="M5,0h35.49681091308594a5,5 0 0 1 5,5v10a5,5 0 0 1 -5,5h-35.49681091308594a5,5 0 0 1 -5,-5v-10a5,5 0 0 1 5,-5z" style="stroke: rgb(51, 51, 51); fill: none; stroke-width: 1px;"/></g><g class="node" transform="translate(411.9431610107422,86.5)" style=""><g class="node-item graph-item-output" transform="translate(0,0)"><path d="M5,0h34.330810546875a5,5 0 0 1 5,5v10a5,5 0 0 1 -5,5h-34.330810546875a5,5 0 0 1 -5,-5v-10a5,5 0 0 1 5,-5z" style="stroke: rgb(0, 0, 0); fill: rgb(238, 238, 238); stroke-width: 0;"/><text x="6" y="13" style="font-family: -apple-system, BlinkMacSystemFont, &quot;Segoe WPC&quot;, &quot;Segoe UI&quot;, Ubuntu, &quot;Droid Sans&quot;, sans-serif, &quot;PingFang SC&quot;; font-size: 11px; text-rendering: geometricprecision; user-select: none;">c_out</text><title>float32[1,1,256]</title></g><path class="node node-border" d="M5,0h34.330810546875a5,5 0 0 1 5,5v10a5,5 0 0 1 -5,5h-34.330810546875a5,5 0 0 1 -5,-5v-10a5,5 0 0 1 5,-5z" style="stroke: rgb(51, 51, 51); fill: none; stroke-width: 1px;"/></g></g></g></svg>